<?xml version="1.0" standalone="no"?>
<!DOCTYPE svg PUBLIC "-//W3C//DTD SVG 20010904//EN"
 "http://www.w3.org/TR/2001/REC-SVG-20010904/DTD/svg10.dtd">
<svg version="1.0" xmlns="http://www.w3.org/2000/svg"
 width="1536.000000pt" height="1024.000000pt" viewBox="0 0 1536.000000 1024.000000"
 preserveAspectRatio="xMidYMid meet">

<g transform="translate(0.000000,1024.000000) scale(0.100000,-0.100000)"
fill="#000000" stroke="none">
<path d="M7875 9300 c3 -5 8 -10 11 -10 2 0 4 5 4 10 0 6 -5 10 -11 10 -5 0
-7 -4 -4 -10z"/>
<path d="M7815 9223 c-16 -31 -45 -74 -64 -95 -19 -21 -30 -42 -26 -46 4 -4
19 8 34 27 52 67 72 85 39 36 -18 -27 -37 -53 -41 -56 -5 -3 -8 -9 -7 -13 6
-23 -9 -27 -29 -7 -13 13 -28 24 -35 25 -80 17 -107 17 -137 2 -38 -19 -42
-20 -33 -5 3 6 20 17 38 25 17 7 24 13 16 14 -22 0 -72 -35 -86 -62 -18 -32
-17 -75 3 -109 l17 -29 -59 -62 c-90 -94 -106 -106 -160 -133 -27 -13 -43 -24
-34 -25 28 0 132 75 204 149 38 39 76 71 85 70 12 0 12 -2 -1 -7 -9 -4 -47
-40 -84 -79 -84 -91 -129 -122 -235 -159 -47 -16 -87 -31 -90 -34 -3 -3 -9 -6
-15 -7 -5 -1 -38 -7 -72 -14 -73 -15 -83 -11 -155 55 -33 30 -49 39 -52 29 -3
-7 -9 -12 -13 -11 -4 2 -10 -1 -12 -7 -2 -5 -15 -27 -27 -47 -13 -21 -24 -42
-24 -48 0 -6 -4 -9 -9 -6 -5 3 -8 -2 -7 -12 0 -10 -6 -17 -16 -16 -9 1 -19 -7
-21 -17 -3 -11 -1 -17 4 -13 11 6 12 -16 1 -33 -4 -6 -20 -15 -35 -18 -15 -4
-27 -11 -27 -17 0 -5 -5 -6 -10 -3 -6 4 -7 11 -4 17 4 6 -1 8 -15 3 -13 -4
-21 -2 -21 5 0 6 3 9 8 7 4 -3 14 2 22 11 13 14 12 15 -4 9 -10 -4 -29 -10
-42 -13 -13 -3 -21 -11 -17 -17 4 -6 0 -8 -9 -5 -20 8 -159 -23 -152 -33 3 -5
-2 -6 -10 -3 -8 3 -39 -1 -68 -10 -29 -8 -78 -22 -108 -30 -30 -7 -129 -34
-220 -59 -91 -25 -185 -51 -208 -57 -42 -11 -44 -13 -38 -43 3 -18 6 -159 7
-313 l0 -282 105 -1 104 -2 0 122 c0 67 -2 120 -5 117 -3 -3 -6 -44 -6 -92 -2
-83 -5 -102 -12 -60 -1 10 -6 25 -10 32 -5 6 -6 16 -2 21 3 6 -3 14 -12 20
-10 6 -13 11 -5 11 8 0 10 8 6 25 -4 15 -2 25 5 25 6 0 11 9 11 20 0 12 5 17
14 14 11 -4 14 16 15 106 1 61 4 117 7 125 5 12 39 29 54 27 3 0 11 4 18 10 6
6 12 7 12 2 1 -5 8 4 16 19 10 18 21 26 30 23 8 -3 14 -1 14 4 0 5 7 6 17 3 9
-4 14 -2 11 3 -3 5 15 10 41 12 25 1 48 7 49 12 2 6 8 8 13 4 5 -3 9 1 9 9 0
13 8 16 62 19 15 1 24 6 21 11 -3 5 4 6 15 3 11 -4 26 -1 33 6 8 7 30 15 49
17 19 1 36 7 38 11 2 5 10 6 18 3 8 -3 14 -1 14 4 0 5 21 8 48 8 31 -1 52 4
63 15 20 19 30 58 18 66 -5 3 -8 0 -7 -7 2 -7 -6 -14 -17 -16 -16 -3 -17 -2
-5 6 8 6 11 11 7 11 -13 0 16 27 30 27 12 0 17 -10 15 -28 -1 -3 6 -6 13 -6
10 0 12 4 5 12 -5 7 -7 15 -3 19 3 3 14 -5 23 -19 l16 -24 1 35 c1 43 0 43 46
46 20 1 37 6 37 11 0 5 -7 7 -15 3 -8 -3 -15 -1 -15 3 0 5 7 11 15 15 8 3 15
12 15 19 0 8 7 28 16 45 8 18 13 35 11 39 -3 5 7 9 21 9 15 1 21 -1 14 -3 -6
-3 -9 -9 -6 -15 3 -5 13 0 21 11 8 12 20 18 26 14 7 -3 3 4 -8 17 -14 17 -5
13 31 -13 29 -20 56 -37 62 -37 5 0 16 -8 23 -17 12 -15 12 -16 -4 -10 -11 4
-16 3 -12 -3 3 -6 12 -10 19 -10 18 0 47 -34 49 -57 1 -20 33 -29 52 -13 7 6
11 -1 11 -20 1 -20 -2 -27 -12 -23 -8 3 -11 10 -7 17 4 6 -1 5 -10 -3 -18 -14
-22 -22 -9 -20 22 4 33 -3 30 -18 -2 -12 3 -17 15 -15 9 2 17 -2 17 -8 0 -5 6
-9 13 -7 6 1 11 -3 10 -8 -2 -13 50 -15 58 -3 3 5 16 10 27 11 12 1 22 5 22
10 0 4 24 32 53 61 86 87 127 135 127 146 0 6 -3 9 -7 7 -5 -3 -9 11 -10 31
-2 34 5 45 79 122 57 61 65 67 27 22 -108 -126 -102 -116 -85 -151 9 -16 16
-33 16 -36 0 -3 -33 -42 -73 -88 -103 -118 -191 -227 -185 -232 5 -6 398 162
413 177 6 5 -28 -7 -75 -28 -126 -54 -203 -84 -207 -80 -2 1 15 23 37 47 22
24 40 47 40 50 0 4 18 29 40 55 31 38 40 57 40 86 0 21 3 38 8 38 4 0 16 16
26 35 25 47 92 92 114 78 16 -10 83 -95 140 -178 15 -23 33 -47 40 -55 15 -16
110 -155 281 -407 60 -89 115 -168 121 -175 5 -7 42 -60 81 -118 39 -58 89
-132 112 -166 46 -68 72 -84 134 -84 58 0 87 21 109 78 28 72 25 164 -9 236
-15 32 -30 56 -33 54 -2 -3 9 -34 26 -69 31 -66 38 -99 20 -99 -5 0 -10 -10
-10 -22 0 -13 -5 -30 -11 -38 -8 -12 -9 -11 -5 5 19 78 17 103 -10 156 -15 30
-43 79 -64 109 -20 30 -83 124 -139 209 -57 85 -122 178 -145 206 -22 28 -78
98 -124 156 -123 156 -205 250 -326 376 -59 63 -106 116 -104 119 3 2 45 -35
94 -83 48 -49 70 -68 48 -43 -85 96 -81 87 -52 118 48 53 78 117 77 169 -1 69
-17 103 -18 38 -1 -44 -29 -115 -46 -115 -2 0 4 15 15 33 22 35 25 73 10 97
-8 13 -10 13 -10 -1 0 -9 -7 -22 -15 -29 -13 -11 -13 -8 0 24 24 56 3 42 -30
-21z m-221 -192 c-7 -32 14 -51 58 -51 20 -1 21 -2 6 -10 -20 -12 -66 3 -74
25 -6 15 2 65 11 65 2 0 2 -13 -1 -29z m-61 -4 c-3 -5 4 -22 16 -38 25 -33 27
-47 5 -28 -13 11 -44 61 -44 72 0 2 7 4 15 4 8 0 12 -5 8 -10z m196 -224 c24
-36 26 -40 6 -18 -38 44 -72 92 -54 78 8 -7 30 -34 48 -60z m71 -93 c12 -16
19 -30 16 -30 -2 0 -14 14 -26 30 -12 17 -19 30 -16 30 2 0 14 -13 26 -30z
m-929 -57 c13 -16 12 -17 -3 -4 -10 7 -18 15 -18 17 0 8 8 3 21 -13z m990 -30
c13 -16 12 -17 -3 -4 -10 7 -18 15 -18 17 0 8 8 3 21 -13z m-1045 -15 c5 -7 3
-8 -6 -3 -9 6 -10 2 -5 -16 6 -19 5 -22 -5 -12 -7 6 -10 19 -7 27 8 19 13 20
23 4z m1094 -53 c17 -25 29 -45 26 -45 -3 0 -19 20 -36 45 -17 25 -29 45 -26
45 3 0 19 -20 36 -45z m-1138 3 c-7 -7 -12 -8 -12 -2 0 14 12 26 19 19 2 -3
-1 -11 -7 -17z m293 3 c-18 -7 -18 -9 9 -23 25 -13 26 -16 10 -22 -10 -4 -15
-4 -11 0 4 4 -2 13 -13 21 -26 19 -25 33 3 32 21 0 21 -1 2 -8z m92 -137 c-3
-3 -12 -4 -19 -1 -8 3 -5 6 6 6 11 1 17 -2 13 -5z m43 -35 c0 -6 -4 -7 -10 -4
-5 3 -10 11 -10 16 0 6 5 7 10 4 6 -3 10 -11 10 -16z m840 -19 c30 -43 18 -37
-16 7 -15 20 -23 33 -16 29 6 -3 21 -20 32 -36z m-1460 -8 c0 -5 -7 -9 -15 -9
-8 0 -12 4 -9 9 3 4 9 8 15 8 5 0 9 -4 9 -8z m1510 -62 c12 -16 19 -30 16 -30
-2 0 -14 14 -26 30 -12 17 -19 30 -16 30 2 0 14 -13 26 -30z m80 -115 c28 -41
48 -75 46 -75 -3 0 -28 34 -56 75 -28 41 -48 75 -46 75 3 0 28 -34 56 -75z
m100 -145 c22 -33 38 -60 36 -60 -3 0 -24 27 -46 60 -22 33 -38 60 -36 60 3 0
24 -27 46 -60z m115 -172 c16 -24 22 -38 14 -31 -15 12 -53 73 -46 73 2 0 17
-19 32 -42z m45 -68 c6 -11 8 -20 6 -20 -3 0 -10 9 -16 20 -6 11 -8 20 -6 20
3 0 10 -9 16 -20z m177 -17 c-3 -10 -5 -4 -5 12 0 17 2 24 5 18 2 -7 2 -21 0
-30z m-97 -3 c0 -12 8 -21 23 -24 12 -3 31 -7 42 -9 11 -3 1 -5 -22 -6 -37 -1
-42 2 -52 29 -6 18 -6 30 0 30 5 0 9 -9 9 -20z m-40 -40 c12 -16 18 -30 13
-30 -4 0 -16 14 -25 30 -22 39 -15 39 12 0z m41 -57 c13 -16 12 -17 -3 -4 -10
7 -18 15 -18 17 0 8 8 3 21 -13z m-2551 -13 c0 -5 -10 -10 -22 -9 -22 0 -22 1
-3 9 11 5 21 9 23 9 1 1 2 -3 2 -9z m2655 0 c-3 -5 -25 -9 -48 -8 l-42 1 45 7
c25 4 46 8 48 8 2 1 0 -2 -3 -8z"/>
<path d="M7630 9123 c8 -3 22 -9 31 -14 11 -5 16 -3 16 7 0 9 -11 14 -31 13
-17 0 -24 -3 -16 -6z"/>
<path d="M7990 8785 c13 -14 26 -25 28 -25 3 0 -5 11 -18 25 -13 14 -26 25
-28 25 -3 0 5 -11 18 -25z"/>
<path d="M8431 8715 c-22 -24 -41 -49 -41 -54 0 -5 -8 -12 -17 -14 -17 -4 -17
-5 -1 -6 10 0 22 9 29 22 6 12 27 39 47 60 20 20 33 37 30 37 -3 0 -24 -20
-47 -45z"/>
<path d="M6793 8723 c-11 -10 -49 -53 -84 -95 -43 -53 -74 -81 -97 -89 -18 -6
-31 -13 -29 -16 13 -13 78 31 122 82 28 32 65 76 84 97 35 40 37 50 4 21z"/>
<path d="M8435 8679 l-39 -51 -47 6 c-46 6 -217 58 -242 73 -13 8 -47 12 -47
6 0 -3 59 -77 131 -166 72 -89 200 -264 283 -389 83 -124 152 -225 154 -223 2
1 -28 50 -65 107 -84 129 -78 120 -137 209 l-49 73 34 28 c19 16 44 31 56 34
28 7 80 -24 124 -74 19 -21 42 -41 52 -45 22 -8 22 -13 -9 -140 -26 -106 -26
-108 -9 -145 10 -20 21 -44 25 -52 4 -8 20 -17 36 -18 16 -2 37 -11 47 -20 15
-13 22 -14 38 -4 17 11 21 9 29 -13 5 -14 9 -31 7 -38 -4 -22 40 -19 56 4 15
21 16 21 22 -14 10 -50 28 -64 63 -46 15 7 30 15 35 17 4 2 7 -3 7 -11 0 -7 9
-22 19 -31 16 -15 22 -16 42 -4 13 7 29 19 35 27 9 12 14 8 23 -22 10 -28 18
-37 35 -37 12 0 27 5 34 12 9 9 12 7 12 -8 0 -12 11 -26 25 -34 31 -16 67 -1
84 36 29 64 51 2 51 -142 0 -37 5 -66 13 -72 23 -19 247 -35 264 -19 11 11 7
797 -4 808 -4 4 -7 -162 -5 -371 l2 -378 -62 19 c-35 10 -85 22 -112 25 l-48
7 3 249 c3 213 2 250 -11 258 -8 5 -10 10 -5 10 29 0 35 -27 35 -146 0 -106 2
-123 18 -130 9 -4 21 -6 26 -5 5 1 19 -8 32 -20 16 -15 24 -18 24 -9 0 11 3
11 12 2 17 -17 39 -15 32 3 -4 8 -2 15 4 15 5 0 14 -17 20 -37 8 -32 10 -19
11 77 1 63 4 178 7 255 3 77 1 146 -3 153 -5 6 -36 19 -69 28 -32 8 -120 31
-194 50 -444 115 -695 188 -729 214 -14 10 -46 49 -71 86 -25 37 -50 69 -55
71 -6 2 -28 -20 -50 -48z m-244 -26 c13 -16 12 -17 -3 -4 -10 7 -18 15 -18 17
0 8 8 3 21 -13z m124 -137 c22 -27 46 -55 54 -63 15 -15 15 -15 90 52 27 24
31 25 19 7 -25 -37 -98 -96 -108 -86 -24 25 -140 177 -140 182 1 7 22 -15 85
-92z m247 -40 l21 -31 -24 25 c-13 14 -31 34 -39 45 -14 19 -14 19 3 6 10 -8
27 -28 39 -45z m58 -51 c13 -14 21 -25 18 -25 -2 0 -15 11 -28 25 -13 14 -21
25 -18 25 2 0 15 -11 28 -25z m297 -207 c-3 -7 -5 -2 -5 12 0 14 2 19 5 13 2
-7 2 -19 0 -25z m-110 -20 c-3 -8 -6 -5 -6 6 -1 11 2 17 5 13 3 -3 4 -12 1
-19z m210 -15 c-3 -10 -5 -4 -5 12 0 17 2 24 5 18 2 -7 2 -21 0 -30z m150 -17
c-7 -14 -13 -23 -15 -21 -7 6 9 45 18 45 4 0 3 -11 -3 -24z m-493 -65 c-8 -29
-14 -62 -12 -74 3 -17 7 -11 17 22 16 54 24 50 9 -6 -11 -47 -34 -63 -40 -30
-4 22 30 153 38 145 2 -3 -3 -28 -12 -57z m333 37 c-3 -8 -6 -5 -6 6 -1 11 2
17 5 13 3 -3 4 -12 1 -19z m107 -12 c-3 -15 -8 -25 -11 -23 -2 3 -1 17 3 31 3
15 8 25 11 23 2 -3 1 -17 -3 -31z m197 17 c13 -17 13 -17 -6 -3 -11 8 -22 16
-24 17 -2 2 0 3 6 3 6 0 17 -8 24 -17z m-48 -23 c-3 -12 -8 -19 -11 -16 -5 6
5 36 12 36 2 0 2 -9 -1 -20z m-73 -141 c-32 -132 -37 -204 -6 -94 9 33 21 77
27 98 6 22 13 37 15 34 3 -3 -4 -38 -15 -79 -11 -40 -25 -92 -31 -115 -6 -26
-17 -43 -25 -43 -22 0 -19 40 10 150 14 52 30 120 37 150 6 30 13 49 16 42 2
-7 -10 -71 -28 -143z m-303 119 c-3 -8 -6 -5 -6 6 -1 11 2 17 5 13 3 -3 4 -12
1 -19z m110 0 c-3 -8 -6 -5 -6 6 -1 11 2 17 5 13 3 -3 4 -12 1 -19z m293 -157
c-22 -90 -40 -166 -40 -168 0 -19 39 48 44 77 14 68 59 230 63 226 2 -2 -12
-66 -31 -142 -28 -110 -40 -143 -60 -160 -14 -12 -22 -25 -19 -28 4 -3 1 -6
-5 -6 -16 0 -17 -9 24 153 50 204 55 219 59 215 2 -2 -14 -77 -35 -167z m-193
127 c-3 -8 -6 -5 -6 6 -1 11 2 17 5 13 3 -3 4 -12 1 -19z m147 -12 c-3 -15 -8
-25 -11 -23 -2 3 -1 17 3 31 3 15 8 25 11 23 2 -3 1 -17 -3 -31z m-383 -64
c-18 -69 -14 -102 8 -65 6 10 11 13 11 7 0 -5 -7 -19 -15 -30 -13 -16 -16 -17
-25 -4 -5 8 -8 22 -5 30 2 8 12 46 21 85 10 38 19 65 21 59 2 -5 -5 -42 -16
-82z m-94 56 c-3 -8 -6 -5 -6 6 -1 11 2 17 5 13 3 -3 4 -12 1 -19z m210 -20
c-3 -8 -6 -5 -6 6 -1 11 2 17 5 13 3 -3 4 -12 1 -19z m100 -44 c-25 -98 -29
-135 -17 -149 8 -9 5 -14 -10 -18 -14 -3 -18 -1 -13 6 4 7 6 20 5 29 -4 20 38
201 45 195 2 -3 -2 -31 -10 -63z m-306 1 c16 11 10 -11 -11 -35 -19 -22 -20
-22 -20 -3 0 11 3 36 7 54 8 33 8 33 11 6 2 -15 8 -25 13 -22z m116 -27 c-3
-8 -6 -5 -6 6 -1 11 2 17 5 13 3 -3 4 -12 1 -19z m220 0 c-3 -8 -6 -5 -6 6 -1
11 2 17 5 13 3 -3 4 -12 1 -19z m-150 -20 c-3 -8 -6 -5 -6 6 -1 11 2 17 5 13
3 -3 4 -12 1 -19z m132 -52 c-6 -26 -13 -45 -16 -43 -2 3 1 26 8 51 6 26 13
45 16 43 2 -3 -1 -26 -8 -51z m-118 7 c-12 -20 -14 -14 -5 12 4 9 9 14 11 11
3 -2 0 -13 -6 -23z m-22 -40 c1 -7 -3 -13 -9 -13 -5 0 -10 15 -9 33 0 27 2 29
9 12 5 -11 9 -26 9 -32z m606 16 c-5 -15 -4 -19 4 -15 6 4 11 3 11 -2 0 -9
-61 -23 -69 -16 -2 2 7 8 20 13 13 5 20 10 15 10 -5 1 -3 8 4 16 17 21 23 19
15 -6z"/>
<path d="M8135 8710 c11 -5 27 -9 35 -9 9 0 8 4 -5 9 -11 5 -27 9 -35 9 -9 0
-8 -4 5 -9z"/>
<path d="M8535 8696 c10 -14 19 -26 22 -26 7 0 -17 39 -28 46 -6 3 -3 -5 6
-20z"/>
<path d="M7110 8675 c-19 -7 -28 -13 -20 -13 8 0 31 6 50 13 19 7 28 13 20 13
-8 0 -31 -6 -50 -13z"/>
<path d="M8258 8673 c7 -3 16 -2 19 1 4 3 -2 6 -13 5 -11 0 -14 -3 -6 -6z"/>
<path d="M6952 8654 c10 -10 20 -16 22 -13 3 3 -5 11 -17 18 -21 13 -21 12 -5
-5z"/>
<path d="M8305 8660 c27 -12 43 -12 25 0 -8 5 -22 9 -30 9 -10 0 -8 -3 5 -9z"/>
<path d="M8569 8645 c5 -11 17 -29 26 -40 l16 -20 -10 20 c-5 11 -17 29 -26
40 l-16 20 10 -20z"/>
<path d="M7018 8643 c7 -3 16 -2 19 1 4 3 -2 6 -13 5 -11 0 -14 -3 -6 -6z"/>
<path d="M8632 8574 c10 -10 20 -16 22 -13 3 3 -5 11 -17 18 -21 13 -21 12 -5
-5z"/>
<path d="M6548 8513 c7 -3 16 -2 19 1 4 3 -2 6 -13 5 -11 0 -14 -3 -6 -6z"/>
<path d="M6572 8235 c-302 -304 -380 -372 -280 -244 15 20 28 40 28 44 0 10
70 125 103 168 16 20 23 37 17 37 -7 0 -111 -25 -233 -55 -121 -30 -221 -55
-221 -55 -1 0 0 -111 2 -247 l3 -248 -123 -3 -123 -3 -4 330 -4 331 24 9 c13
5 19 10 12 10 -31 2 -61 -22 -66 -53 -8 -52 -3 -704 6 -713 12 -11 163 -16
217 -6 73 13 80 36 80 280 0 183 2 202 18 207 16 5 93 23 136 32 11 2 41 11
67 19 27 9 53 14 59 10 5 -3 10 -1 10 4 0 6 7 11 15 11 8 0 15 -3 15 -6 0 -4
-22 -43 -49 -88 -48 -79 -71 -159 -49 -172 24 -15 66 17 209 162 190 195 176
180 293 292 94 90 98 93 116 77 11 -10 31 -17 45 -17 l26 0 -23 -26 c-13 -13
-82 -86 -154 -161 -72 -75 -152 -161 -179 -191 -26 -30 -77 -88 -113 -128
-134 -149 -178 -222 -134 -222 17 0 155 67 242 117 144 84 278 165 366 223 66
44 72 46 83 29 6 -10 11 -36 11 -57 0 -21 6 -47 14 -58 14 -19 15 -19 78 4 35
12 73 22 86 22 25 0 57 -44 68 -93 13 -61 69 -47 123 31 21 31 65 88 98 126
82 97 191 244 214 288 10 21 19 51 19 67 0 35 -48 151 -62 151 -6 0 -1 -16 10
-35 12 -19 25 -51 31 -71 10 -36 9 -37 -72 -133 -46 -53 -126 -152 -179 -221
-52 -69 -103 -132 -112 -140 -22 -18 -25 -13 -61 95 -15 47 -32 85 -37 85 -12
0 -147 -80 -154 -91 -11 -19 -23 -8 -15 14 14 37 45 216 39 223 -4 3 -30 -14
-60 -38 -29 -24 -96 -71 -148 -104 -113 -74 -377 -240 -440 -278 -25 -15 -56
-34 -70 -44 -14 -9 7 19 45 63 39 44 93 107 120 140 54 66 141 159 313 335 61
64 112 118 112 121 0 6 -116 129 -121 129 -2 0 -131 -129 -287 -285z"/>
<path d="M8818 8513 c7 -3 16 -2 19 1 4 3 -2 6 -13 5 -11 0 -14 -3 -6 -6z"/>
<path d="M6405 8482 c-33 -8 -55 -17 -50 -18 6 -2 42 5 80 15 39 11 61 19 50
19 -11 0 -47 -7 -80 -16z"/>
<path d="M8888 8493 c7 -3 16 -2 19 1 4 3 -2 6 -13 5 -11 0 -14 -3 -6 -6z"/>
<path d="M8928 8483 c7 -3 16 -2 19 1 4 3 -2 6 -13 5 -11 0 -14 -3 -6 -6z"/>
<path d="M6318 8453 c7 -3 16 -2 19 1 4 3 -2 6 -13 5 -11 0 -14 -3 -6 -6z"/>
<path d="M9038 8453 c7 -3 16 -2 19 1 4 3 -2 6 -13 5 -11 0 -14 -3 -6 -6z"/>
<path d="M6278 8443 c7 -3 16 -2 19 1 4 3 -2 6 -13 5 -11 0 -14 -3 -6 -6z"/>
<path d="M9078 8443 c7 -3 16 -2 19 1 4 3 -2 6 -13 5 -11 0 -14 -3 -6 -6z"/>
<path d="M6238 8433 c7 -3 16 -2 19 1 4 3 -2 6 -13 5 -11 0 -14 -3 -6 -6z"/>
<path d="M7595 8422 c-16 -10 -52 -26 -80 -36 -27 -10 -63 -26 -80 -35 -16 -9
-68 -32 -115 -51 -82 -32 -133 -61 -80 -45 22 7 23 6 11 -9 -7 -9 -21 -16 -30
-16 -13 0 -13 -2 -2 -9 7 -5 10 -14 6 -20 -4 -8 2 -10 22 -7 25 5 26 4 11 -8
-22 -16 -24 -30 -3 -23 8 4 17 2 20 -2 3 -5 -2 -12 -11 -15 -13 -5 -14 -9 -4
-21 7 -8 17 -12 23 -8 6 3 7 1 3 -5 -4 -7 -2 -12 3 -12 6 0 11 -5 11 -11 0 -5
-6 -7 -12 -4 -7 4 -4 -1 6 -9 11 -9 23 -16 28 -16 16 0 7 -20 -9 -21 -15 0
-15 -2 2 -9 11 -5 14 -9 7 -9 -7 -1 -11 -5 -7 -10 3 -5 -2 -16 -10 -24 -20
-20 -19 -28 3 -20 14 5 15 3 5 -8 -7 -7 -13 -18 -13 -23 0 -6 5 -4 10 4 8 12
10 12 10 1 0 -8 3 -11 7 -8 3 4 12 2 20 -4 13 -12 15 7 15 124 0 46 10 42 13
-5 2 -18 3 -36 4 -40 2 -12 33 4 64 31 16 14 57 60 90 101 34 41 64 77 67 80
3 3 27 29 54 57 l48 51 -25 56 c-14 31 -32 56 -39 56 -7 0 -26 -8 -43 -18z"/>
<path d="M9148 8423 c7 -3 16 -2 19 1 4 3 -2 6 -13 5 -11 0 -14 -3 -6 -6z"/>
<path d="M6168 8413 c7 -3 16 -2 19 1 4 3 -2 6 -13 5 -11 0 -14 -3 -6 -6z"/>
<path d="M9188 8413 c7 -3 16 -2 19 1 4 3 -2 6 -13 5 -11 0 -14 -3 -6 -6z"/>
<path d="M6128 8403 c7 -3 16 -2 19 1 4 3 -2 6 -13 5 -11 0 -14 -3 -6 -6z"/>
<path d="M9235 8400 c11 -5 29 -8 40 -8 16 0 15 2 -5 8 -34 11 -60 11 -35 0z"/>
<path d="M6058 8383 c7 -3 16 -2 19 1 4 3 -2 6 -13 5 -11 0 -14 -3 -6 -6z"/>
<path d="M6018 8373 c7 -3 16 -2 19 1 4 3 -2 6 -13 5 -11 0 -14 -3 -6 -6z"/>
<path d="M9338 8373 c6 -2 18 -2 25 0 6 3 1 5 -13 5 -14 0 -19 -2 -12 -5z"/>
<path d="M5948 8353 c7 -3 16 -2 19 1 4 3 -2 6 -13 5 -11 0 -14 -3 -6 -6z"/>
<path d="M9418 8353 c7 -3 16 -2 19 1 4 3 -2 6 -13 5 -11 0 -14 -3 -6 -6z"/>
<path d="M5908 8343 c7 -3 16 -2 19 1 4 3 -2 6 -13 5 -11 0 -14 -3 -6 -6z"/>
<path d="M9458 8343 c7 -3 16 -2 19 1 4 3 -2 6 -13 5 -11 0 -14 -3 -6 -6z"/>
<path d="M5825 8325 c-39 -14 -40 -14 -5 -8 41 7 82 22 60 22 -8 0 -33 -7 -55
-14z"/>
<path d="M9498 8333 c7 -3 16 -2 19 1 4 3 -2 6 -13 5 -11 0 -14 -3 -6 -6z"/>
<path d="M9538 8323 c7 -3 16 -2 19 1 4 3 -2 6 -13 5 -11 0 -14 -3 -6 -6z"/>
<path d="M6370 8100 c-6 -11 -8 -20 -6 -20 3 0 10 9 16 20 6 11 8 20 6 20 -3
0 -10 -9 -16 -20z"/>
<path d="M6715 8070 c-3 -5 -3 -14 0 -20 3 -5 0 -7 -8 -4 -8 3 -18 0 -22 -6
-4 -7 2 -14 14 -17 11 -3 18 -9 15 -14 -3 -5 8 -9 25 -9 23 0 33 7 45 32 9 17
16 34 16 38 0 11 -78 11 -85 0z"/>
<path d="M6635 7990 c-3 -11 -21 -32 -40 -49 -19 -17 -35 -36 -35 -43 1 -8 5
-7 14 4 7 10 16 15 19 11 4 -3 7 1 7 10 0 11 8 17 22 17 12 0 19 3 15 6 -3 3
5 16 19 29 23 22 23 23 5 28 -14 3 -22 -1 -26 -13z"/>
<path d="M6535 7850 c-3 -6 1 -7 9 -4 18 7 21 14 7 14 -6 0 -13 -4 -16 -10z"/>
<path d="M6503 7835 c0 -8 4 -12 9 -9 5 3 6 10 3 15 -9 13 -12 11 -12 -6z"/>
<path d="M9420 7805 c0 -19 5 -35 10 -35 6 0 10 16 10 35 0 19 -4 35 -10 35
-5 0 -10 -16 -10 -35z"/>
<path d="M5413 7463 c82 -2 212 -2 290 0 78 1 12 3 -148 3 -159 0 -223 -2
-142 -3z"/>
<path d="M5923 7463 c9 -2 23 -2 30 0 6 3 -1 5 -18 5 -16 0 -22 -2 -12 -5z"/>
<path d="M5985 7120 c0 -219 -4 -353 -10 -359 -7 -7 -10 49 -9 167 1 154 -1
173 -12 142 l-12 -35 -2 30 c-1 41 -26 73 -43 56 -10 -10 -9 -12 3 -9 19 4 24
-66 5 -82 -10 -8 -12 -4 -10 20 1 17 5 33 8 36 3 3 -6 16 -19 29 -14 15 -21
30 -18 40 4 9 -1 21 -12 29 -17 13 -17 15 9 49 15 20 27 39 27 44 0 4 -4 2 -9
-6 -5 -8 -18 -16 -28 -17 -17 -3 -17 -2 0 11 10 7 17 17 16 21 -4 21 2 24 17
10 8 -9 20 -16 27 -16 6 0 2 7 -9 15 -13 10 -14 13 -3 10 13 -5 16 4 18 55 1
43 -2 60 -11 61 -7 1 -2 5 12 9 14 4 -125 8 -307 9 l-333 1 -2 -622 -3 -623
-5 627 c-3 344 -8 630 -13 634 -4 4 -12 3 -17 -2 -10 -10 -20 -1578 -10 -1587
3 -2 14 -7 25 -11 16 -5 25 1 40 27 11 17 20 37 21 43 2 15 95 134 104 134 4
0 31 28 59 62 l51 63 0 445 0 446 83 0 82 -1 3 -322 2 -323 27 0 c22 0 54 27
156 130 l129 131 -3 377 c-1 207 -4 383 -7 390 -14 39 -17 -23 -17 -338z
m-148 304 c-3 -3 -12 -4 -19 -1 -8 3 -5 6 6 6 11 1 17 -2 13 -5z m-160 -191
c-12 -11 14 -33 39 -33 12 0 26 -5 29 -10 6 -10 9 -642 3 -665 -1 -5 -5 141
-8 325 l-5 335 -120 5 c-82 4 -98 7 -52 8 56 2 67 5 67 20 0 14 2 15 10 2 9
-13 14 -7 11 13 0 4 7 7 16 7 9 0 13 -3 10 -7z m-177 -516 c0 -462 0 -464 -22
-483 l-21 -19 16 25 c15 23 16 75 13 483 -1 251 1 457 6 457 4 0 8 -209 8
-463z m400 -30 c0 -2 -10 -12 -22 -23 l-23 -19 19 23 c18 21 26 27 26 19z
m-623 -519 c-3 -8 -6 -5 -6 6 -1 11 2 17 5 13 3 -3 4 -12 1 -19z"/>
<path d="M6913 7443 c48 -2 125 -2 170 0 45 1 6 3 -88 3 -93 0 -130 -2 -82 -3z"/>
<path d="M7050 7044 c-223 -224 -470 -475 -550 -558 -80 -83 -245 -256 -368
-383 -122 -127 -238 -252 -258 -277 -63 -83 -122 -192 -148 -276 -25 -77 -26
-93 -26 -298 0 -119 -3 -227 -6 -239 -6 -21 -12 -23 -75 -23 l-69 0 0 218 c0
293 23 390 134 562 74 115 109 153 392 441 365 370 588 600 665 683 111 121
131 141 140 138 5 -1 8 2 7 6 -2 4 15 26 37 48 160 159 265 287 265 323 0 21
-3 23 -31 17 -17 -3 -98 -6 -180 -6 -118 0 -149 -3 -149 -13 0 -8 -257 -272
-572 -588 -596 -599 -702 -710 -783 -821 -27 -38 -50 -68 -52 -68 -17 0 97
155 187 255 34 39 205 214 379 390 449 454 825 844 829 858 2 7 -163 -154
-366 -358 -203 -203 -395 -395 -428 -425 -119 -110 -487 -497 -543 -570 -118
-154 -193 -308 -232 -476 -22 -93 -24 -123 -27 -519 -3 -390 -2 -420 14 -432
22 -16 649 -19 705 -3 21 6 41 20 47 33 8 16 11 18 14 7 1 -8 5 129 8 305 l5
320 28 -73 c16 -39 32 -72 36 -72 5 0 16 -17 25 -39 10 -21 27 -49 39 -62 12
-13 35 -42 52 -64 16 -22 35 -44 41 -50 7 -5 36 -39 65 -75 29 -36 58 -70 64
-76 5 -6 39 -44 75 -84 36 -41 129 -139 206 -218 l142 -144 48 4 c40 3 52 -1
73 -21 60 -56 108 -78 170 -80 22 -1 23 -2 7 -26 -20 -31 -20 -45 2 -70 24
-27 98 -86 152 -121 25 -16 61 -41 80 -55 33 -25 75 -49 185 -108 61 -33 160
-71 184 -71 27 0 101 42 246 138 71 48 140 92 153 99 13 7 47 33 76 57 l52 45
55 -14 c94 -25 123 -21 168 26 21 23 41 52 44 65 5 28 -20 54 -52 54 -26 0
-72 22 -89 43 -10 12 -1 14 61 16 90 3 138 28 217 115 30 33 82 90 115 126
123 135 189 211 271 316 120 154 304 432 304 460 l0 24 -166 0 c-91 0 -174 -4
-184 -10 -10 -5 -97 -109 -195 -230 -157 -195 -317 -366 -334 -356 -3 2 -5
147 -3 321 2 281 4 316 18 311 26 -10 725 -7 789 4 224 35 339 85 482 207 108
91 263 309 315 443 50 127 63 210 63 405 0 196 -10 259 -63 398 -30 77 -98
190 -159 262 -36 43 -153 147 -190 168 -66 38 -144 77 -155 76 -7 0 10 -10 37
-23 129 -59 279 -185 357 -300 89 -130 151 -313 164 -484 7 -97 -8 -265 -31
-334 -10 -29 -13 -33 -10 -13 25 160 27 358 6 445 -9 35 -9 35 -11 -15 -1 -46
-2 -48 -12 -22 -5 15 -16 27 -23 27 -7 0 -16 6 -19 13 -3 6 -4 5 -3 -5 1 -9
-2 -17 -8 -16 -5 0 -9 4 -7 9 1 5 -9 2 -22 -6 -13 -9 -26 -12 -28 -8 -3 4 -3
2 -1 -6 2 -7 -2 -20 -8 -27 -6 -8 -8 -21 -5 -30 4 -10 0 -17 -12 -21 -14 -3
-18 -14 -17 -50 2 -44 -10 -118 -36 -228 -18 -77 -83 -204 -136 -267 -89 -104
-153 -147 -298 -198 -149 -52 -252 -61 -742 -60 l-434 1 -32 -27 c-18 -14 -35
-34 -39 -43 -5 -11 -7 -8 -7 12 -1 15 2 27 7 27 4 0 22 14 41 30 l34 30 471 1
c259 0 491 3 516 6 72 9 210 51 277 85 85 42 182 124 227 192 231 348 130 842
-211 1033 -144 80 -229 93 -658 102 -329 7 -336 8 -123 9 126 1 229 6 233 11
3 5 -3 12 -12 14 -13 3 -11 5 6 6 13 0 29 8 35 16 6 8 29 16 51 18 22 1 46 6
54 11 10 7 12 6 6 -4 -5 -8 -3 -11 6 -8 8 3 13 15 12 27 -2 11 2 21 8 21 8 0
7 5 -1 15 -10 12 -10 15 4 15 19 0 21 11 4 30 -11 12 -10 12 5 1 12 -10 17
-10 17 -1 0 8 16 10 59 5 32 -3 61 -3 64 2 3 5 -2 10 -11 12 -9 2 -290 5 -624
7 l-608 5 -120 -116 c-66 -63 -123 -115 -127 -115 -5 1 51 57 122 126 l130
124 645 -2 c355 -2 625 0 600 4 -25 3 -316 7 -648 7 l-603 1 -37 -32 c-93 -82
-207 -196 -229 -231 -34 -54 -28 -80 22 -89 22 -4 339 -7 705 -8 659 0 752 -4
847 -36 210 -70 333 -191 399 -391 27 -82 29 -98 28 -233 -1 -135 -3 -150 -32
-228 -66 -179 -190 -296 -377 -355 -131 -41 -218 -47 -689 -47 l-441 0 -50
-29 c-28 -16 -57 -36 -64 -44 -9 -12 -12 -103 -12 -394 -1 -208 3 -386 6 -396
10 -24 1 -31 -16 -14 -8 7 -24 13 -36 12 -12 -1 -28 3 -35 8 -9 6 -8 7 5 3 36
-12 14 22 -77 116 -52 53 -84 92 -71 86 29 -13 64 5 67 35 1 12 2 119 2 237 1
118 5 232 10 253 14 60 83 129 178 175 l83 41 240 2 c132 2 285 2 340 1 56 -2
166 2 245 8 146 10 240 33 339 85 94 48 207 219 230 349 53 294 -99 541 -384
623 -52 15 -125 17 -568 21 -451 3 -511 1 -533 -13 l-24 -15 0 -325 c0 -311 1
-325 19 -335 11 -5 72 -10 136 -9 l117 1 21 36 c19 31 22 54 24 156 1 66 6
123 11 128 15 15 710 5 752 -11 45 -18 89 -58 106 -98 40 -94 -13 -177 -139
-219 l-42 -14 40 5 c22 2 65 17 95 32 164 84 159 311 -9 397 -49 26 -186 36
-521 38 l-325 2 250 6 c138 3 242 7 232 8 -15 2 -16 4 -5 16 7 8 18 13 23 13
6 -1 9 4 7 11 -2 9 4 12 17 7 11 -3 22 -1 26 5 3 6 10 8 13 6 4 -2 8 10 9 26
1 33 22 51 62 55 13 1 31 5 40 8 13 5 14 7 1 15 -25 16 101 12 156 -5 58 -18
61 -18 48 -5 -6 6 -41 17 -80 26 -55 13 -165 17 -559 21 -269 3 -480 9 -468
14 12 4 243 7 515 6 549 -3 544 -2 680 -74 219 -115 309 -395 198 -620 -35
-70 -102 -149 -151 -177 -26 -15 -20 -7 24 33 31 29 57 59 57 67 0 8 5 14 11
14 5 0 8 4 4 10 -3 5 -11 8 -18 7 -7 -2 -2 1 11 7 18 8 22 18 22 56 0 41 -3
48 -31 64 l-31 18 6 -33 7 -34 -20 40 c-11 22 -20 35 -21 29 0 -6 -10 -16 -22
-22 -13 -6 -17 -11 -10 -11 8 -1 6 -7 -5 -19 -10 -11 -21 -17 -24 -16 -4 2
-13 -3 -20 -12 -10 -12 -10 -15 1 -12 7 2 14 -2 17 -9 3 -7 -12 -16 -37 -23
-27 -7 -38 -15 -33 -23 4 -7 0 -7 -10 2 -15 12 -17 11 -17 -5 0 -17 -1 -17
-15 2 -17 22 -20 12 -4 -18 6 -11 7 -18 1 -14 -5 3 -26 -3 -47 -13 -21 -10
-46 -16 -57 -13 -10 2 -24 0 -31 -6 -7 -6 -18 -7 -26 -3 -8 5 -25 5 -40 1 -14
-4 -35 -4 -46 0 -11 4 -24 5 -28 3 -4 -3 -31 -7 -60 -9 -28 -3 -59 -12 -69
-20 -14 -14 -17 -14 -25 1 -5 8 -26 18 -48 22 -24 4 -36 2 -32 -4 7 -11 -29
-11 -39 0 -4 4 -14 7 -23 7 -14 0 -14 -2 -1 -10 12 -8 11 -10 -7 -10 -13 0
-23 4 -23 10 0 5 -8 6 -17 3 -11 -4 -12 -8 -5 -11 17 -5 15 -19 -3 -19 -8 0
-15 5 -15 10 0 6 -3 7 -6 4 -4 -4 -1 -13 6 -22 7 -9 10 -18 7 -21 -8 -9 -47 6
-47 17 0 6 5 7 10 4 6 -3 10 -2 10 3 0 6 -7 13 -16 16 -8 3 -12 2 -9 -4 10
-15 -23 -24 -40 -10 -8 6 -19 9 -25 5 -5 -3 -10 -2 -10 4 0 5 6 12 13 14 7 3
6 6 -5 6 -9 1 -20 -3 -23 -9 -3 -5 -15 -10 -26 -10 -11 0 -17 -4 -14 -10 3 -6
-1 -7 -10 -4 -9 4 -13 9 -10 12 2 3 -4 12 -15 19 -18 12 -24 13 -37 1 -12 -9
-15 -9 -9 0 5 9 -5 12 -41 12 -26 0 -55 5 -63 10 -12 7 -12 10 -1 10 7 0 11 6
7 15 -4 11 1 15 17 14 12 0 16 -3 10 -6 -7 -2 -13 -9 -13 -15 0 -6 7 -8 15 -4
8 3 15 1 15 -4 0 -6 4 -10 9 -10 6 0 8 9 6 20 -2 11 -3 21 -2 22 1 1 193 4
427 7 329 5 430 9 445 19 l20 14 -20 -8 c-11 -5 -234 -11 -495 -15 -523 -7
-565 -11 -685 -70 -127 -62 -239 -194 -287 -339 -17 -49 -18 -51 -13 -15 16
116 149 293 272 361 135 76 143 77 668 84 l470 6 -425 2 c-540 2 -610 -6 -760
-94 -80 -47 -168 -141 -217 -231 l-43 -78 0 47 c0 60 2 62 208 262 50 48 73
78 78 100 3 18 4 182 2 364 -3 283 -5 334 -18 342 -22 14 -244 12 -275 -2
l-25 -11 0 -237 c0 -225 -1 -240 -24 -306 -26 -72 -101 -353 -143 -534 -13
-57 -26 -106 -28 -109 -8 -8 -206 428 -252 554 -26 71 -62 140 -70 132 -2 -3
5 -24 16 -48 11 -24 58 -132 104 -239 47 -107 99 -225 116 -263 17 -37 31 -69
31 -71 0 -2 45 -107 101 -232 74 -170 132 -282 222 -432 168 -281 151 -264
271 -268 140 -4 197 -24 268 -94 69 -69 84 -113 70 -204 l-10 -61 1 67 c0 118
-67 216 -172 249 -20 6 -83 13 -140 15 -123 4 -135 10 -188 94 -21 33 -78 123
-127 198 -49 75 -105 173 -123 217 -19 44 -39 85 -45 90 -8 7 -9 4 -4 -10 6
-16 5 -18 -5 -7 -33 31 -89 -1 -89 -51 0 -63 99 -73 101 -10 l1 28 7 -25 c9
-29 -3 -48 -38 -61 -71 -28 -122 61 -66 116 15 16 36 25 55 25 16 0 30 5 30
11 0 12 -69 180 -80 194 -4 6 -20 41 -35 79 -15 38 -31 77 -36 85 -17 32 -59
132 -59 141 0 6 -4 10 -10 10 -5 0 -10 7 -10 15 0 9 -11 37 -24 63 -14 26 -34
70 -45 97 -10 28 -35 88 -55 135 l-35 85 -1 -53 c0 -29 5 -63 12 -75 6 -12 12
-51 13 -87 l2 -65 -19 75 c-12 49 -19 109 -19 175 l0 99 -21 -34 c-32 -51 -35
-173 -9 -324 11 -66 19 -121 17 -123 -2 -2 -32 27 -67 64 -35 37 -97 102 -138
145 -40 42 -71 82 -69 88 3 10 296 315 478 499 135 136 398 419 457 491 34 41
64 89 68 105 4 17 9 39 12 50 5 17 4 18 -10 7 -11 -10 -64 -14 -194 -15 -134
-2 -177 -5 -176 -14 2 -7 -6 -17 -17 -23 -11 -6 -18 -15 -15 -20 7 -11 42 25
-660 -681 -588 -592 -823 -836 -877 -909 -16 -22 -32 -40 -34 -40 -11 0 63 98
124 164 150 162 692 724 1027 1066 148 151 312 321 364 377 l94 103 181 3 181
2 -185 3 -185 2 -405 -406z m-150 119 c-208 -210 -600 -616 -640 -665 -11 -12
-19 -19 -20 -15 -1 22 846 897 869 897 4 0 -90 -98 -209 -217z m802 140 c-33
-38 -79 -86 -103 -108 -23 -22 2 8 56 68 54 59 101 107 103 107 2 0 -23 -30
-56 -67z m-423 -443 c-140 -144 -316 -325 -391 -403 -75 -78 -137 -138 -138
-133 0 5 30 39 68 75 37 36 107 109 156 161 101 108 549 560 555 560 2 0 -111
-117 -250 -260z m651 -219 l0 -329 -27 -17 -28 -18 20 22 c19 22 20 40 24 337
l3 314 -121 0 c-74 0 -121 4 -121 10 0 6 48 10 125 10 l125 0 0 -329z m-926
128 c-3 -5 -10 -7 -15 -3 -5 3 -7 10 -3 15 3 5 10 7 15 3 5 -3 7 -10 3 -15z
m-36 -29 c-15 -24 -34 -26 -42 -5 -3 8 -1 15 4 15 6 0 10 -5 10 -11 0 -6 7 -3
16 5 21 22 27 20 12 -4z m1432 -197 c0 -99 -4 -162 -9 -153 -5 8 -8 60 -6 115
1 55 3 124 4 153 0 28 3 52 6 52 3 0 5 -75 5 -167z m-145 -144 c103 3 91 -10
-14 -15 l-81 -5 2 63 1 63 6 -54 6 -54 80 2z m-2076 20 l-52 -54 48 58 c26 32
50 56 52 54 2 -3 -20 -28 -48 -58z m2201 -28 c0 -5 -9 -7 -20 -4 -11 3 -20 7
-20 9 0 2 9 4 20 4 11 0 20 -4 20 -9z m1115 -51 c3 -5 1 -10 -4 -10 -6 0 -11
5 -11 10 0 6 2 10 4 10 3 0 8 -4 11 -10z m-68 -22 c-3 -8 -6 -5 -6 6 -1 11 2
17 5 13 3 -3 4 -12 1 -19z m-3347 -2 c0 -2 -8 -10 -17 -17 -16 -13 -17 -12 -4
4 13 16 21 21 21 13z m3313 -31 c-3 -9 -8 -14 -10 -11 -3 3 -2 9 2 15 9 16 15
13 8 -4z m-2507 -107 c156 -153 222 -230 229 -264 l6 -29 -13 27 c-7 15 -90
106 -185 203 -94 96 -167 175 -161 175 6 0 62 -51 124 -112z m954 58 c0 -2 -8
-10 -17 -17 -16 -13 -17 -12 -4 4 13 16 21 21 21 13z m-264 -157 c-13 -60 -34
-123 -35 -106 -1 14 41 178 45 174 2 -2 -3 -32 -10 -68z m-1056 -2 c0 -2 -10
-12 -22 -23 l-23 -19 19 23 c18 21 26 27 26 19z m2820 -14 c-102 -45 -113 -46
-640 -52 l-505 -6 -65 -31 c-84 -41 -139 -89 -174 -154 l-29 -53 2 -268 c1
-148 -1 -269 -5 -269 -4 0 -23 19 -43 43 -20 23 -58 67 -86 98 -27 31 -13 17
32 -30 l83 -86 0 248 c0 245 0 249 25 302 33 68 120 149 200 186 46 21 82 28
153 33 52 3 99 9 105 13 20 13 87 11 87 -2 0 -9 78 -13 323 -14 291 -2 333 0
416 18 50 11 99 25 109 30 9 6 24 10 32 10 8 0 -1 -8 -20 -16z m-2173 -25 c-3
-7 -5 -2 -5 12 0 14 2 19 5 13 2 -7 2 -19 0 -25z m1756 15 c-3 -7 -6 -13 -8
-13 -2 0 -5 6 -8 13 -3 8 1 14 8 14 7 0 11 -6 8 -14z m-1299 -114 c3 -34 4
-64 1 -69 -10 -17 -16 -288 -6 -335 5 -27 8 -51 7 -53 -3 -2 -72 164 -83 198
-2 8 7 -5 20 -30 l25 -45 7 75 c4 41 8 130 8 197 1 68 5 123 8 123 3 0 9 -27
13 -61z m-1050 45 c9 -3 13 -10 10 -15 -3 -5 0 -9 7 -9 7 0 37 -26 67 -57 423
-445 523 -547 600 -612 37 -31 52 -51 52 -69 0 -38 -22 -102 -35 -102 -11 0
-271 266 -605 618 -98 104 -169 171 -177 168 -23 -9 -14 17 19 51 34 35 37 36
62 27z m956 -84 l-11 -25 6 25 c2 14 5 34 6 45 2 19 2 19 6 0 2 -12 -1 -32 -7
-45z m-333 28 c-3 -8 -6 -5 -6 6 -1 11 2 17 5 13 3 -3 4 -12 1 -19z m-410
-333 c67 -71 201 -211 297 -310 96 -99 176 -183 176 -186 1 -18 -54 -120 -68
-128 -27 -13 -114 -22 -107 -11 3 6 13 10 22 10 47 0 90 23 111 60 12 22 22
47 22 56 0 9 -37 54 -82 99 -46 45 -164 167 -263 271 -99 104 -225 236 -280
294 -55 58 -105 110 -112 117 -6 7 -13 9 -15 5 -2 -5 -23 -26 -48 -47 -42 -37
-42 -36 8 17 l54 55 82 -86 c45 -47 137 -144 203 -216z m727 231 c-3 -21 -8
-35 -11 -32 -2 2 -1 20 3 40 3 21 8 35 11 32 2 -2 1 -20 -3 -40z m-377 2 c-3
-8 -6 -5 -6 6 -1 11 2 17 5 13 3 -3 4 -12 1 -19z m-1776 -35 c-11 -21 -20 -35
-21 -31 0 12 33 78 38 74 2 -2 -6 -21 -17 -43z m1866 25 c-3 -8 -6 -5 -6 6 -1
11 2 17 5 13 3 -3 4 -12 1 -19z m-27 -309 c0 7 -11 61 -25 119 -14 58 -24 112
-22 121 2 9 16 -38 32 -104 15 -66 36 -144 46 -174 27 -78 24 -80 -20 -15 -22
33 -105 129 -186 214 l-147 155 161 -165 c89 -90 161 -158 161 -151z m37 269
c-3 -8 -6 -5 -6 6 -1 11 2 17 5 13 3 -3 4 -12 1 -19z m10 -50 c-3 -8 -6 -5 -6
6 -1 11 2 17 5 13 3 -3 4 -12 1 -19z m450 0 c-3 -8 -6 -5 -6 6 -1 11 2 17 5
13 3 -3 4 -12 1 -19z m-1406 -38 c-25 -56 -19 -67 90 -180 148 -154 213 -224
299 -320 47 -52 107 -117 134 -145 70 -72 132 -147 139 -168 5 -13 -5 -31 -32
-60 l-39 -42 -64 65 c-80 82 -188 199 -254 276 -111 129 -311 373 -342 418
-21 31 -38 46 -47 42 -37 -14 -6 31 76 112 29 29 54 50 56 48 2 -1 -5 -23 -16
-46z m966 -2 c-3 -8 -6 -5 -6 6 -1 11 2 17 5 13 3 -3 4 -12 1 -19z m-1427 -8
c-6 -11 -13 -20 -16 -20 -2 0 0 9 6 20 6 11 13 20 16 20 2 0 0 -9 -6 -20z
m1867 -52 c-2 -13 -4 -5 -4 17 -1 22 1 32 4 23 2 -10 2 -28 0 -40z m-430 20
c-3 -8 -6 -5 -6 6 -1 11 2 17 5 13 3 -3 4 -12 1 -19z m10 -40 c-3 -8 -6 -5 -6
6 -1 11 2 17 5 13 3 -3 4 -12 1 -19z m-596 -253 c79 -82 193 -206 253 -275
146 -169 49 -67 -429 450 -108 116 -19 28 176 -175z m623 165 c4 -24 3 -29 -3
-15 -4 11 -11 36 -15 55 -4 24 -3 29 3 15 4 -11 11 -36 15 -55z m-1006 -109
c120 -151 349 -416 460 -532 56 -59 102 -111 102 -117 0 -5 -6 -14 -13 -20
-10 -8 -13 -6 -14 8 -1 11 -15 32 -31 47 -17 15 -72 75 -123 133 -52 58 -111
124 -133 147 -21 23 -48 55 -60 72 -11 16 -55 69 -96 118 -41 48 -102 125
-135 170 -35 48 -67 82 -77 83 -11 0 -31 -20 -49 -47 -17 -27 -28 -40 -25 -31
3 10 22 43 41 74 l37 57 20 -33 c11 -18 54 -76 96 -129z m1880 -27 c1 5 9 3
17 -4 12 -10 13 -16 4 -27 -9 -10 -9 -12 3 -8 10 4 14 -1 14 -16 -1 -15 6 -23
21 -25 16 -3 21 0 17 11 -4 9 0 15 8 15 8 0 15 -7 15 -15 0 -8 -3 -15 -7 -15
-4 0 -7 -7 -7 -15 0 -8 5 -11 11 -7 17 10 37 11 30 1 -3 -5 -1 -9 5 -9 16 0 5
-33 -15 -44 -51 -29 -85 -59 -80 -73 3 -8 2 -12 -3 -9 -5 3 -11 -4 -14 -15 -3
-12 -10 -18 -16 -14 -7 4 -11 -12 -11 -48 l0 -55 75 -56 c85 -64 103 -87 22
-29 -116 83 -105 61 -112 224 -3 79 -2 200 2 269 l8 125 6 -85 c3 -47 6 -81 7
-76z m605 149 l-383 -3 -2 -363 c-1 -240 -3 -330 -8 -267 -5 68 -6 607 0 638
0 1 174 1 388 0 l387 -3 -382 -2z m-3158 -553 c61 0 106 -4 110 -10 4 -7 -31
-10 -107 -8 l-113 3 0 270 -1 270 3 -262 3 -263 105 0z m1692 478 c-3 -8 -6
-5 -6 6 -1 11 2 17 5 13 3 -3 4 -12 1 -19z m61 -101 c6 2 9 -3 7 -10 -6 -15
17 -41 79 -92 27 -21 59 -48 71 -60 50 -49 166 -188 201 -241 21 -33 48 -72
61 -87 13 -16 23 -33 23 -39 0 -6 -36 38 -79 98 -113 156 -200 254 -292 330
-75 63 -108 106 -123 164 -3 14 4 5 17 -20 13 -25 28 -44 35 -43z m-1398 -295
l0 -318 -37 5 c-33 5 -35 6 -10 9 l27 3 0 203 c0 192 9 416 17 416 1 0 3 -143
3 -318z m1713 270 c34 -35 34 -38 0 -37 -20 0 -32 9 -46 33 -19 31 -19 32 0
32 11 0 31 -13 46 -28z m1603 21 c-4 -5 -76 -10 -159 -13 l-151 -5 -39 -50
c-21 -27 -52 -70 -69 -95 -94 -137 -401 -470 -448 -485 -13 -4 -17 -19 -19
-70 -1 -36 -11 -90 -22 -122 -23 -68 -23 -60 -1 -67 9 -2 6 -4 -8 -3 -28 3
-28 1 0 77 21 58 27 159 10 176 -6 6 15 28 60 62 80 62 187 173 298 310 42 53
105 131 138 172 34 41 66 85 73 98 11 21 16 22 178 22 91 0 163 -3 159 -7z
m-3196 -43 c6 -11 8 -20 6 -20 -3 0 -10 9 -16 20 -6 11 -8 20 -6 20 3 0 10 -9
16 -20z m1785 -194 c100 -93 143 -141 134 -151 -3 -2 -29 20 -58 48 -30 29
-58 52 -63 52 -5 0 -21 14 -36 30 -34 39 -26 23 17 -32 18 -24 29 -43 24 -43
-10 1 -68 80 -128 175 -47 73 -62 115 -21 55 13 -19 72 -79 131 -134z m-1620
-40 c94 -117 346 -394 470 -516 68 -67 85 -80 81 -60 -12 61 -14 108 -7 140 6
30 8 22 14 -50 3 -47 8 -101 11 -120 5 -33 -3 -27 -131 105 -224 230 -464 506
-532 610 -17 28 -22 37 -9 21 13 -16 59 -75 103 -130z m1179 74 c18 0 8 -62
-16 -90 -16 -21 -19 -21 -13 -5 18 54 12 74 -22 75 -18 0 -53 -41 -46 -53 3
-6 1 -7 -5 -3 -7 4 -12 2 -12 -4 0 -7 -16 -46 -35 -87 -39 -81 -58 -95 -147
-109 -50 -8 -128 -39 -128 -51 0 -5 -13 -13 -29 -19 -20 -8 -37 -29 -60 -74
-51 -103 -41 -198 31 -295 l30 -40 -32 35 c-48 52 -70 111 -70 185 0 160 111
266 303 290 42 6 49 10 66 44 17 32 62 143 101 246 l12 30 30 -37 c16 -21 35
-38 42 -38z m876 50 c0 -5 -2 -10 -4 -10 -3 0 -8 5 -11 10 -3 6 -1 10 4 10 6
0 11 -4 11 -10z m-60 -34 c0 -2 -7 -7 -16 -10 -8 -3 -12 -2 -9 4 6 10 25 14
25 6z m107 -18 c-3 -8 -6 -5 -6 6 -1 11 2 17 5 13 3 -3 4 -12 1 -19z m732 -35
c-141 -192 -484 -585 -550 -631 -19 -13 -8 2 27 35 61 58 197 209 264 293 19
24 49 60 66 79 17 20 74 91 127 159 101 127 139 164 66 65z m-732 -20 c-3 -10
-5 -4 -5 12 0 17 2 24 5 18 2 -7 2 -21 0 -30z m-787 -115 c0 -4 19 -29 43 -56
105 -122 126 -161 126 -227 -1 -101 -1 -100 -159 59 -80 80 -151 146 -157 146
-15 0 -17 36 -3 45 5 3 23 32 41 65 l31 59 39 -42 c21 -23 39 -45 39 -49z
m-224 -57 c-21 -40 -20 -70 3 -95 11 -12 31 -43 45 -70 22 -40 26 -61 25 -120
l-2 -71 -7 67 c-7 60 -49 159 -81 193 -15 15 -10 71 8 104 23 38 29 32 9 -8z
m227 -180 c110 -111 147 -155 147 -174 0 -33 42 -106 95 -165 54 -60 151 -110
243 -124 49 -8 75 -18 99 -38 l31 -28 -26 -11 c-24 -10 -25 -10 -9 3 18 14 17
15 -12 30 -16 9 -44 16 -61 16 -94 0 -231 74 -302 164 -23 28 -56 83 -74 121
-24 52 -57 95 -127 168 -51 54 -101 99 -109 101 -25 3 -51 28 -38 36 8 5 7 12
-4 23 -17 17 -20 27 -8 27 4 0 74 -67 155 -149z m-348 67 c7 -7 1 -8 -20 -2
-50 14 -111 8 -152 -16 -21 -12 -29 -14 -18 -5 40 34 78 45 130 40 28 -4 55
-11 60 -17z m255 -74 c23 -52 25 -114 9 -180 l-12 -46 99 -101 c55 -56 113
-118 129 -137 17 -19 -28 26 -100 100 -89 92 -129 140 -128 154 1 12 5 48 8
81 6 47 3 73 -12 118 -24 69 -20 75 7 11z m-1832 19 c-16 -2 -40 -2 -55 0 -16
2 -3 4 27 4 30 0 43 -2 28 -4z m179 1 c-3 -3 -12 -4 -19 -1 -8 3 -5 6 6 6 11
1 17 -2 13 -5z m1980 -26 c-3 -8 -6 -5 -6 6 -1 11 2 17 5 13 3 -3 4 -12 1 -19z
m-990 -30 c-3 -8 -6 -5 -6 6 -1 11 2 17 5 13 3 -3 4 -12 1 -19z m980 -10 c-3
-8 -6 -5 -6 6 -1 11 2 17 5 13 3 -3 4 -12 1 -19z m349 -21 c63 -68 30 -172
-63 -199 -35 -10 -98 11 -129 43 -24 25 -27 37 -28 96 -1 68 -1 68 34 86 26
13 51 17 94 14 53 -3 62 -7 92 -40z m-929 12 c56 -35 78 -110 49 -167 -48 -92
-147 -103 -228 -25 -39 37 -40 111 -2 160 30 39 46 47 104 51 29 2 52 -4 77
-19z m685 -124 c31 -59 104 -105 165 -105 76 1 147 66 164 149 6 31 7 32 8 8
2 -41 -37 -115 -77 -145 -29 -22 -45 -27 -98 -27 -53 0 -68 4 -105 30 -76 54
-111 132 -93 207 8 31 9 29 14 -27 4 -33 14 -73 22 -90z m340 110 c3 -13 1
-22 -3 -19 -9 5 -13 44 -5 44 2 0 6 -11 8 -25z m-445 -57 c-3 -8 -6 -5 -6 6
-1 11 2 17 5 13 3 -3 4 -12 1 -19z m-800 -99 c10 -16 35 -42 57 -57 33 -22 50
-27 102 -27 54 0 69 5 106 31 24 17 42 36 41 43 -4 13 4 15 12 1 10 -17 -71
-88 -110 -96 -68 -12 -121 1 -171 41 -51 42 -75 87 -73 137 l1 33 9 -39 c5
-21 17 -51 26 -67z m817 46 c5 -22 4 -26 -4 -15 -5 8 -10 24 -10 34 0 26 6 18
14 -19z m52 -92 c23 -31 24 -34 5 -18 -22 19 -46 55 -38 55 3 0 17 -17 33 -37z
m629 -13 c-3 -5 -16 -10 -28 -9 -20 1 -20 2 3 9 14 4 26 8 28 9 2 1 0 -3 -3
-9z m-245 -4 c0 -2 -8 -10 -17 -17 -16 -13 -17 -12 -4 4 13 16 21 21 21 13z
m177 -12 c-3 -3 -12 -4 -19 -1 -8 3 -5 6 6 6 11 1 17 -2 13 -5z m-884 -123
c27 -23 35 -41 19 -41 -5 0 -17 8 -28 18 -10 9 -47 30 -81 46 -35 16 -63 34
-63 39 0 5 9 17 20 27 19 17 22 16 63 -24 24 -22 56 -52 70 -65z m392 99 c3
-5 2 -10 -4 -10 -5 0 -13 5 -16 10 -3 6 -2 10 4 10 5 0 13 -4 16 -10z m342
-59 c49 -48 73 -63 119 -77 l58 -17 -28 -23 c-26 -23 -80 -33 -89 -16 -3 4 9
7 25 7 47 0 43 17 -9 45 -49 26 -143 111 -143 129 0 16 1 15 67 -48z m-260 23
c-3 -3 -12 -4 -19 -1 -8 3 -5 6 6 6 11 1 17 -2 13 -5z m106 -11 c-18 -2 -48
-2 -65 0 -18 2 -4 4 32 4 36 0 50 -2 33 -4z m-1026 -9 c-3 -3 -12 -4 -19 -1
-8 3 -5 6 6 6 11 1 17 -2 13 -5z m318 -14 c3 -6 23 -18 43 -29 20 -10 72 -37
115 -61 68 -37 84 -42 123 -37 37 4 43 2 33 -9 -6 -8 -30 -14 -52 -14 -32 0
-64 14 -146 62 -58 34 -114 61 -124 60 -9 0 -30 -10 -47 -22 -41 -29 -135 -60
-184 -60 l-41 0 30 -26 30 -26 -30 18 c-59 35 -58 38 30 55 94 19 145 41 178
75 24 26 33 29 42 14z m790 -40 c10 -11 16 -20 13 -20 -3 0 -13 9 -23 20 -10
11 -16 20 -13 20 3 0 13 -9 23 -20z"/>
<path d="M8418 6023 c12 -2 30 -2 40 0 9 3 -1 5 -23 4 -22 0 -30 -2 -17 -4z"/>
<path d="M8235 5280 c-4 -6 -11 -8 -16 -4 -6 3 -5 -3 3 -15 17 -27 23 -27 26
4 2 26 -3 32 -13 15z"/>
<path d="M8290 5244 c0 -8 5 -12 10 -9 6 4 8 11 5 16 -9 14 -15 11 -15 -7z"/>
<path d="M5953 7398 c-1 -36 0 -39 7 -18 11 33 12 60 2 60 -4 0 -9 -19 -9 -42z"/>
<path d="M9420 7405 c47 -13 87 -22 88 -20 6 6 -133 45 -154 44 -10 0 19 -11
66 -24z"/>
<path d="M9388 7383 c7 -3 16 -2 19 1 4 3 -2 6 -13 5 -11 0 -14 -3 -6 -6z"/>
<path d="M9276 7365 c-3 -9 -12 -12 -23 -8 -15 5 -15 3 2 -10 14 -11 21 -12
24 -4 2 7 8 15 14 18 6 4 5 9 -1 13 -5 3 -12 -1 -16 -9z"/>
<path d="M9426 7369 c3 -5 12 -9 21 -9 19 0 9 13 -12 16 -8 1 -13 -2 -9 -7z"/>
<path d="M9318 7363 c7 -3 16 -2 19 1 4 3 -2 6 -13 5 -11 0 -14 -3 -6 -6z"/>
<path d="M9490 7346 c14 -8 27 -12 29 -10 6 6 -1 11 -29 18 l-25 7 25 -15z"/>
<path d="M9192 7321 c5 -16 35 -24 43 -11 3 5 -3 7 -12 6 -10 -2 -22 2 -26 8
-6 7 -7 6 -5 -3z"/>
<path d="M5951 7294 c0 -11 3 -14 6 -6 3 7 2 16 -1 19 -3 4 -6 -2 -5 -13z"/>
<path d="M9594 7295 c8 -8 20 -15 27 -15 7 0 4 6 -7 15 -25 19 -40 19 -20 0z"/>
<path d="M9336 7268 c3 -5 10 -6 15 -3 13 9 11 12 -6 12 -8 0 -12 -4 -9 -9z"/>
<path d="M9800 7146 c0 -2 8 -10 18 -17 15 -13 16 -12 3 4 -13 16 -21 21 -21
13z"/>
<path d="M9870 7063 c0 -5 10 -18 23 -29 l22 -19 -20 25 c-11 14 -21 27 -22
29 -2 2 -3 0 -3 -6z"/>
<path d="M9430 6806 c0 -2 8 -10 18 -17 15 -13 16 -12 3 4 -13 16 -21 21 -21
13z"/>
<path d="M9456 6412 c-3 -4 4 -9 15 -9 23 -2 25 3 4 10 -8 4 -16 3 -19 -1z"/>
<path d="M7131 6224 c0 -11 3 -14 6 -6 3 7 2 16 -1 19 -3 4 -6 -2 -5 -13z"/>
<path d="M5845 3566 c-38 -17 -50 -32 -64 -80 -9 -34 -8 -44 10 -73 27 -44 47
-53 111 -53 49 0 56 3 77 31 33 44 26 122 -13 156 -15 13 -35 23 -44 22 -14 0
-14 -2 -2 -6 38 -14 60 -46 59 -87 -1 -23 -3 -32 -6 -21 -2 11 -6 30 -9 43 -7
33 -66 57 -107 43 -47 -17 -45 -4 4 19 24 11 37 19 29 19 -8 0 -29 -6 -45 -13z"/>
<path d="M3137 3323 c-11 -22 -14 -108 -16 -418 -1 -214 2 -395 7 -402 9 -14
39 -17 142 -15 71 2 76 4 88 29 6 15 12 58 12 95 0 65 1 69 39 108 21 22 43
40 48 40 9 0 133 -184 133 -198 0 -4 14 -23 30 -42 l29 -35 200 -2 c111 -2
211 1 224 6 17 7 33 30 52 75 l28 66 153 0 154 0 35 -69 c34 -68 36 -70 81
-77 25 -3 76 -4 112 -1 79 6 107 30 96 80 -3 16 -58 144 -121 286 -63 141
-135 303 -160 361 -25 58 -52 113 -61 123 -12 14 -32 17 -106 17 -50 0 -97 -4
-104 -8 -13 -9 -97 -175 -160 -317 -101 -229 -185 -405 -193 -405 -4 0 -16 15
-28 33 -49 75 -148 214 -193 268 -21 26 -38 50 -38 54 0 3 38 48 85 99 92 99
194 233 195 254 0 19 -16 14 -49 -14 -20 -16 -29 -20 -25 -10 5 14 -5 16 -79
16 l-86 0 -48 -56 c-26 -31 -64 -73 -83 -93 -19 -20 -23 -23 -9 -6 14 16 44
55 66 85 65 89 65 89 183 93 l105 3 -115 0 -115 -1 -140 -166 -140 -166 -5
166 -5 166 -102 3 -102 3 -14 -28z m203 -163 c0 -99 3 -180 7 -180 4 0 25 17
47 38 32 29 35 31 16 7 -75 -91 -80 -85 -80 120 l0 175 -79 0 c-44 0 -83 5
-86 10 -4 6 27 10 84 10 l91 0 0 -180z m1202 -70 c207 -465 228 -513 223 -518
-3 -3 -7 -3 -8 -1 -2 2 -75 164 -161 359 -87 195 -161 362 -165 370 -6 11 -31
16 -100 18 -52 2 -91 7 -91 13 0 6 37 9 97 7 l96 -3 109 -245z m-1365 103 c-2
-21 -4 -6 -4 32 0 39 2 55 4 38 2 -18 2 -50 0 -70z m0 -135 c-2 -18 -4 -4 -4
32 0 36 2 50 4 33 2 -18 2 -48 0 -65z m313 59 c0 -2 -12 -14 -27 -28 l-28 -24
24 28 c23 25 31 32 31 24z m866 -174 c13 -31 24 -57 24 -59 0 -7 -116 -4 -123
2 -10 10 53 125 64 118 5 -3 21 -31 35 -61z m-699 -40 c68 -91 67 -89 157
-222 38 -55 67 -104 64 -107 -4 -3 -32 34 -65 81 -81 121 -205 288 -220 298
-7 4 -13 12 -13 17 0 25 24 4 77 -67z m793 -43 c0 -12 -206 -12 -235 0 -13 5
27 9 108 9 78 1 127 -3 127 -9z m-1113 -252 c-2 -24 -4 -7 -4 37 0 44 2 63 4
43 2 -21 2 -57 0 -80z m-160 -15 c-2 -16 -4 -3 -4 27 0 30 2 43 4 28 2 -16 2
-40 0 -55z"/>
<path d="M4852 3334 l-22 -15 0 -402 c0 -235 4 -408 10 -417 8 -12 44 -16 201
-18 220 -4 294 6 388 51 92 43 190 142 222 222 34 86 34 254 1 336 -26 64 -84
136 -146 178 -48 33 -163 72 -210 70 -24 -1 -21 -3 16 -9 166 -28 269 -104
325 -239 18 -44 22 -74 22 -141 0 -47 -3 -93 -7 -102 -4 -9 -7 29 -8 85 0 88
-4 110 -26 159 -55 119 -159 195 -299 218 -35 5 -151 10 -256 10 -119 0 -193
4 -193 10 0 6 77 11 198 13 l197 2 -195 3 c-163 2 -199 -1 -218 -14z m231
-613 c23 1 26 3 10 6 -23 4 -23 6 -23 189 l0 184 91 0 c118 0 169 -14 214 -57
55 -54 68 -110 45 -195 -13 -45 -78 -105 -122 -112 -18 -3 -44 -7 -58 -9 -14
-3 -4 -5 21 -6 50 -1 97 15 144 49 21 15 19 11 -8 -13 -20 -19 -58 -40 -84
-48 -45 -12 -251 -17 -269 -6 -5 3 -7 102 -4 224 l5 218 3 -212 2 -213 33 1z
m404 267 c-3 -8 -6 -5 -6 6 -1 11 2 17 5 13 3 -3 4 -12 1 -19z"/>
<path d="M5780 3335 c-16 -19 -26 -811 -11 -834 7 -11 34 -14 116 -13 59 0
110 4 113 7 4 3 5 194 3 423 -2 302 -6 419 -14 424 -7 4 -53 8 -103 8 -69 0
-95 -4 -104 -15z m198 -382 l-3 -388 -5 375 -5 375 -75 3 c-111 4 -113 22 -2
22 l92 0 -2 -387z m-161 225 c-2 -13 -4 -5 -4 17 -1 22 1 32 4 23 2 -10 2 -28
0 -40z m0 -65 c-3 -10 -5 -4 -5 12 0 17 2 24 5 18 2 -7 2 -21 0 -30z"/>
<path d="M6148 3329 c-17 -17 -18 -52 -18 -412 0 -324 3 -397 14 -413 12 -15
28 -19 82 -21 37 -1 79 0 93 3 42 9 61 53 61 145 l0 79 59 0 58 0 50 -67 c28
-38 57 -82 66 -99 23 -45 36 -52 102 -55 128 -5 166 0 172 20 3 11 11 22 19
25 27 10 13 38 -60 126 -112 132 -109 120 -49 180 59 59 77 110 77 210 -1 86
-32 158 -92 210 -25 22 -50 40 -56 40 -6 0 5 -11 25 -24 41 -28 82 -86 99
-140 16 -49 8 -143 -15 -182 -9 -16 -13 -20 -9 -9 4 11 11 44 16 73 13 70 -10
149 -60 204 -74 81 -143 98 -407 98 -121 0 -195 4 -195 10 0 6 72 11 183 13
l182 2 -190 2 c-176 1 -191 0 -207 -18z m460 -245 c16 -11 22 -24 22 -53 0
-41 -12 -57 -57 -72 -24 -8 -21 -8 17 -5 41 4 43 3 26 -10 -11 -8 -40 -14 -65
-15 -25 0 -76 -2 -114 -4 -50 -3 -71 0 -82 12 -17 17 -21 103 -4 103 6 0 9
-18 8 -47 l-3 -48 83 -3 c46 -2 88 1 92 5 5 4 -28 7 -71 5 l-80 -4 -2 49 c-3
73 0 96 13 104 20 12 192 -1 217 -17z m89 -26 c-3 -8 -6 -5 -6 6 -1 11 2 17 5
13 3 -3 4 -12 1 -19z m-23 -72 c-6 -15 -34 -31 -34 -19 0 5 30 32 37 33 1 0 0
-6 -3 -14z m-211 -173 c-13 -2 -33 -2 -45 0 -13 2 -3 4 22 4 25 0 35 -2 23 -4z
m333 -113 c116 -141 109 -130 92 -130 -8 0 -28 19 -46 43 -18 23 -57 71 -87
107 -30 36 -55 72 -55 80 0 17 -2 19 96 -100z m-439 -77 c-2 -32 -3 -8 -3 52
0 61 1 87 3 58 2 -29 2 -78 0 -110z m323 -23 c12 -16 19 -30 16 -30 -2 0 -14
14 -26 30 -12 17 -19 30 -16 30 2 0 14 -13 26 -30z"/>
<path d="M7328 3339 c-17 -9 -18 -39 -18 -407 0 -218 3 -407 6 -419 5 -20 13
-22 92 -25 48 -2 94 -2 103 0 24 5 39 60 39 140 l0 72 75 0 c150 0 274 46 341
126 53 64 74 125 74 219 0 128 -46 210 -145 257 -33 15 -67 28 -75 28 -8 -1 7
-9 33 -20 67 -26 112 -63 144 -117 22 -38 27 -58 27 -117 0 -65 -17 -136 -30
-123 -3 3 0 15 6 28 8 14 11 50 8 101 -6 104 -36 148 -134 198 l-69 35 -227 3
c-147 2 -228 7 -228 14 0 7 76 9 227 7 124 -2 209 -1 187 3 -62 11 -417 9
-436 -3z m189 -206 c-3 -10 -5 -2 -5 17 0 19 2 27 5 18 2 -10 2 -26 0 -35z
m240 -41 c30 -17 46 -49 39 -78 -10 -37 -60 -56 -163 -62 l-93 -5 0 35 c0 19
3 56 6 81 6 40 10 46 33 49 45 5 155 -7 178 -20z m-240 -39 c-3 -10 -5 -2 -5
17 0 19 2 27 5 18 2 -10 2 -26 0 -35z m340 0 c-3 -10 -5 -2 -5 17 0 19 2 27 5
18 2 -10 2 -26 0 -35z m-29 -62 c-20 -32 -82 -61 -144 -67 -71 -7 -166 6 -172
24 -2 6 1 12 8 12 6 0 8 -5 4 -11 -5 -9 23 -11 107 -7 115 5 160 18 188 52 18
22 24 20 9 -3z"/>
<path d="M8148 3339 c-17 -9 -18 -41 -18 -428 0 -349 2 -420 14 -424 8 -3 146
-6 307 -6 359 -1 339 -8 338 117 0 48 -4 96 -8 106 -7 19 -8 19 -13 -1 -3 -12
-4 -42 -2 -67 2 -25 -1 -46 -6 -46 -5 0 -10 23 -12 51 l-3 51 -187 -1 c-187 0
-223 3 -212 20 3 5 0 9 -6 9 -9 0 -9 25 1 90 1 8 5 -10 8 -40 l6 -55 50 -1
c28 -1 68 2 90 6 33 6 25 8 -42 9 l-83 1 0 35 c0 47 15 52 175 54 162 2 165 4
165 121 0 112 3 110 -186 110 l-155 0 3 38 3 37 159 -2 c87 -1 165 1 172 4 29
11 45 68 42 144 l-3 74 -290 2 c-185 2 -296 -1 -307 -8z m591 -64 l2 -65 -173
2 -173 2 163 3 162 3 0 50 0 50 -269 0 c-169 0 -272 4 -276 10 -4 7 91 10 278
10 l284 0 2 -65z m-531 -698 c13 -4 11 -5 -5 -6 l-23 -1 2 373 3 372 2 -367
c3 -338 5 -367 21 -371z m141 497 l6 -37 165 -1 165 -1 3 -62 3 -63 -28 1
c-22 1 -24 3 -6 6 17 3 21 10 19 36 -2 18 -4 40 -5 50 -1 15 -9 18 -38 17 -21
-1 -92 -2 -159 -1 -119 1 -121 1 -132 26 -13 27 -17 83 -5 72 3 -4 9 -23 12
-43z m119 -161 c-10 -2 -26 -2 -35 0 -10 3 -2 5 17 5 19 0 27 -2 18 -5z m170
-340 c-76 -2 -200 -2 -275 0 -76 1 -14 3 137 3 151 0 213 -2 138 -3z"/>
<path d="M8905 3329 c-18 -19 -19 -47 -22 -428 l-3 -409 32 -5 c18 -3 67 -4
107 -2 98 5 110 19 111 125 l0 76 44 43 43 42 22 -28 c12 -15 55 -73 96 -129
41 -56 81 -107 89 -113 10 -9 49 -13 117 -12 95 1 104 3 135 29 18 15 33 32
33 39 1 13 -44 73 -184 243 -55 67 -111 135 -124 151 l-24 29 79 86 c150 163
217 255 195 268 -9 6 -236 -230 -284 -295 -25 -34 -27 -42 -15 -52 8 -7 52
-57 97 -112 46 -55 111 -134 145 -175 34 -41 71 -87 80 -102 l18 -28 -113 1
-114 0 -108 150 c-60 83 -107 153 -104 155 3 3 139 -178 195 -262 l22 -34 89
0 89 0 -14 30 c-9 17 -20 30 -25 30 -5 0 -9 6 -9 14 0 7 -7 20 -17 27 -9 8
-33 36 -53 64 -20 27 -64 80 -96 117 -78 90 -114 134 -114 143 0 10 166 198
230 261 19 19 29 34 22 34 -7 0 -10 5 -7 10 4 6 -18 10 -58 10 l-64 0 -41 -49
c-23 -27 -42 -54 -42 -59 0 -5 -24 -32 -52 -59 -29 -28 -82 -82 -117 -122 -62
-69 -64 -71 -83 -54 -13 12 -19 28 -17 53 1 19 1 92 0 163 l-1 127 -70 0 -70
0 0 -370 0 -370 75 0 74 0 4 88 3 87 2 -95 2 -95 -85 3 -85 3 -2 385 -3 384
88 0 87 0 0 -175 c0 -96 4 -175 8 -175 9 0 87 80 123 126 13 17 61 73 107 125
l83 94 102 6 102 5 -106 2 -107 2 -60 -63 c-34 -34 -74 -78 -89 -96 -101 -123
-143 -171 -144 -164 0 4 0 63 1 130 1 67 -2 138 -6 158 l-6 35 -98 0 c-85 0
-99 -3 -115 -21z m295 -482 c0 -2 -12 -14 -27 -28 l-28 -24 24 28 c23 25 31
32 31 24z"/>
<path d="M9960 3336 c-114 -32 -212 -112 -262 -214 -29 -59 -33 -77 -36 -169
-6 -158 35 -272 129 -360 101 -97 200 -129 364 -120 114 6 185 28 260 82 27
19 50 33 51 32 2 -1 -2 -22 -7 -46 -5 -24 -7 -46 -4 -50 4 -3 40 -7 81 -9 106
-6 130 6 165 85 l28 64 158 -3 157 -3 16 -41 c8 -22 23 -52 33 -67 17 -27 19
-27 127 -27 100 0 109 2 115 20 3 11 11 20 17 20 23 0 -4 75 -120 336 -65 148
-136 312 -157 364 -21 52 -42 101 -48 108 -6 8 -42 12 -113 12 -84 0 -106 -3
-120 -17 -9 -10 -40 -65 -67 -123 -72 -154 -183 -402 -192 -430 -4 -14 -18
-40 -30 -58 -20 -30 -23 -31 -36 -16 -19 23 -89 74 -102 74 -6 0 15 -18 47
-41 35 -25 56 -47 54 -56 -5 -25 -108 -90 -173 -109 -39 -12 -93 -18 -155 -18
-167 0 -290 61 -367 181 -56 87 -66 129 -61 251 3 95 7 113 33 160 58 106 162
174 291 191 64 8 65 8 19 9 -27 0 -70 -5 -95 -12z m1073 -33 c9 -21 30 -72 46
-113 31 -81 101 -240 205 -470 l66 -145 -97 -3 c-53 -1 -99 1 -103 5 -3 4 -19
41 -34 81 l-28 72 -178 0 c-130 0 -180 -3 -187 -12 -5 -7 -20 -40 -33 -73 -13
-33 -26 -64 -30 -68 -4 -4 -46 -7 -93 -5 l-86 3 73 165 c41 91 111 246 156
345 45 99 89 197 97 218 l16 37 97 0 97 0 16 -37z"/>
<path d="M10832 3313 c1 -5 -8 -27 -20 -51 -13 -23 -20 -47 -17 -51 2 -5 -2
-14 -9 -21 -8 -6 -18 -26 -21 -43 -4 -18 -22 -61 -41 -97 -40 -78 -94 -196
-94 -205 0 -11 -62 -140 -70 -145 -12 -8 -38 -93 -33 -107 3 -9 25 -13 64 -13
59 0 59 0 75 38 9 20 25 56 36 80 l21 42 182 0 c134 0 185 -3 193 -12 6 -7 22
-43 37 -80 l27 -68 78 0 c76 0 78 1 73 23 -4 12 -12 31 -20 42 -7 11 -13 25
-13 32 0 25 -63 154 -70 143 -4 -6 -10 6 -12 27 -7 44 -77 203 -90 203 -5 0
-6 5 -3 10 3 6 2 10 -4 10 -9 0 -22 28 -26 55 -1 6 -3 13 -5 18 -1 4 -3 10 -4
15 -12 51 -43 122 -62 140 -21 19 -36 22 -100 22 -41 0 -73 -3 -72 -7z m141
-210 c14 -37 39 -104 56 -147 23 -59 28 -83 19 -93 -16 -19 -251 -18 -267 1
-13 15 -5 62 12 73 6 4 8 0 5 -8 -3 -8 -8 -24 -12 -36 l-7 -23 135 0 135 0
-60 148 c-34 81 -64 151 -68 155 -4 4 -13 2 -18 -5 -10 -11 -67 -144 -87 -202
-3 -10 -9 -16 -12 -14 -3 3 11 50 31 104 57 156 92 167 138 47z m-32 -140 c16
-37 29 -69 29 -70 0 -2 -31 -3 -70 -3 -38 0 -70 2 -70 4 0 4 22 57 53 128 15
34 22 27 58 -59z m-3 -130 c-15 -2 -42 -2 -60 0 -18 2 -6 4 27 4 33 0 48 -2
33 -4z"/>
<path d="M10190 3340 c30 -3 69 -10 85 -13 27 -6 26 -6 -5 7 -19 8 -57 14 -85
14 l-50 -1 55 -7z"/>
<path d="M11423 3333 l-23 -15 0 -410 c0 -380 1 -409 18 -416 9 -4 55 -7 100
-7 122 0 122 0 122 221 0 112 4 175 11 179 13 9 53 -28 82 -75 11 -19 23 -37
27 -40 17 -15 131 -154 165 -202 22 -31 47 -60 56 -66 9 -6 49 -12 88 -13 70
-2 73 -1 102 30 l29 32 -2 397 -3 397 -92 3 c-70 2 -100 -1 -124 -13 l-31 -16
4 -205 c2 -173 1 -202 -10 -185 -7 10 -75 96 -150 189 -75 93 -147 183 -160
198 -12 16 -18 20 -13 9 13 -28 380 -485 389 -485 4 0 6 112 5 250 l-3 250 90
0 90 0 0 -385 0 -385 -79 0 -79 0 -194 244 c-106 135 -200 247 -208 250 -8 2
-1 3 15 2 18 -2 30 -8 30 -17 1 -8 6 -13 13 -12 12 3 34 -30 38 -56 2 -8 13
-24 25 -35 21 -20 22 -20 15 -1 -5 14 1 11 18 -10 14 -16 23 -35 21 -42 -4
-13 137 -200 205 -270 39 -41 43 -43 101 -43 l61 0 -4 353 c-2 266 -6 357 -16
372 -13 19 -13 19 -7 -2 5 -20 4 -21 -19 -10 -16 8 -21 14 -13 19 7 4 -6 7
-28 7 -31 0 -36 -2 -20 -9 11 -5 14 -9 7 -9 -18 -1 11 -31 29 -31 8 0 5 -5 -5
-13 -12 -9 -19 -27 -20 -50 0 -21 -5 -35 -11 -33 -13 5 -22 -95 -16 -169 1
-11 0 -38 -4 -60 -3 -22 -7 -57 -9 -78 -4 -42 -18 -63 -36 -52 -6 4 -65 75
-132 158 -66 84 -125 154 -132 156 -18 6 -56 43 -56 55 0 6 10 0 21 -14 18
-22 19 -22 9 -3 -6 12 -26 35 -45 50 -19 16 -35 32 -35 36 0 5 -9 20 -20 34
-11 14 -20 21 -20 16 0 -5 5 -14 12 -21 7 -7 8 -12 3 -12 -16 1 -45 26 -45 39
0 7 -20 11 -54 11 -90 0 -76 19 16 23 l83 3 -80 1 c-58 2 -86 -2 -102 -14z
m117 -753 l70 0 0 223 c0 126 4 228 10 237 6 10 10 -68 10 -230 l0 -245 -84 3
-84 3 -4 357 c-2 196 -1 364 2 372 3 8 6 -150 8 -352 l2 -368 70 0z"/>
<path d="M6602 3331 c25 -5 57 -12 70 -16 19 -5 20 -4 6 5 -10 6 -42 13 -70
15 l-53 4 47 -8z"/>
<path d="M9954 3296 c-79 -29 -115 -55 -156 -114 -65 -93 -73 -116 -73 -226 0
-89 3 -108 27 -159 79 -168 253 -254 458 -226 71 10 155 40 192 70 15 13 15
18 3 47 -12 27 -19 32 -49 32 -20 0 -55 -8 -78 -17 -66 -28 -198 -24 -266 6
-64 29 -128 98 -143 155 -16 57 -6 163 19 212 71 139 270 187 411 100 34 -21
77 -25 66 -5 -4 5 0 9 8 9 8 0 20 7 27 15 10 12 8 16 -14 25 -15 5 -30 20 -35
33 -5 14 -17 27 -26 31 -9 3 -13 2 -10 -4 3 -6 2 -10 -4 -10 -5 0 -14 7 -18
15 -22 39 -243 47 -339 11z"/>
<path d="M10369 3280 c34 -22 64 -46 67 -53 2 -7 -15 -34 -39 -61 l-44 -48
-46 35 c-45 34 -115 57 -177 57 -44 0 -137 -38 -176 -73 -130 -114 -96 -330
64 -408 37 -18 65 -23 132 -23 81 -1 88 1 139 34 30 18 49 36 44 37 -6 2 -34
-11 -63 -29 -48 -30 -60 -33 -129 -33 -65 1 -84 5 -130 30 -117 64 -150 198
-73 294 34 43 81 60 178 68 69 5 74 4 143 -33 l71 -38 36 34 c41 40 94 115 94
134 0 21 -117 116 -144 116 -5 0 19 -18 53 -40z"/>
<path d="M11780 2910 c6 -11 13 -20 16 -20 2 0 0 9 -6 20 -6 11 -13 20 -16 20
-2 0 0 -9 6 -20z"/>
<path d="M8588 2723 c17 -2 47 -2 65 0 17 2 3 4 -33 4 -36 0 -50 -2 -32 -4z"/>
<path d="M8728 2723 c6 -2 18 -2 25 0 6 3 1 5 -13 5 -14 0 -19 -2 -12 -5z"/>
<path d="M5318 2123 c18 -2 45 -2 60 0 15 2 0 4 -33 4 -33 0 -45 -2 -27 -4z"/>
<path d="M7663 2123 c9 -2 23 -2 30 0 6 3 -1 5 -18 5 -16 0 -22 -2 -12 -5z"/>
<path d="M8428 2123 c17 -2 47 -2 65 0 17 2 3 4 -33 4 -36 0 -50 -2 -32 -4z"/>
<path d="M5219 2100 c-49 -26 -116 -104 -129 -149 -34 -124 22 -253 132 -302
87 -38 222 -28 299 24 l34 23 2 99 c0 65 -2 89 -7 70 -4 -16 -8 -22 -9 -12 -1
14 -10 17 -51 17 -29 0 -50 5 -50 11 0 5 -5 7 -11 4 -7 -5 -8 -25 -4 -55 8
-55 5 -58 -63 -71 l-47 -8 45 4 c25 2 56 7 70 10 22 6 22 5 -5 -10 -40 -23
-106 -23 -149 0 -33 18 -66 61 -66 87 0 7 9 -1 19 -18 20 -33 58 -64 76 -64 5
1 -2 7 -17 16 -34 18 -58 62 -58 106 0 69 85 126 158 106 19 -5 42 -11 51 -13
9 -2 23 -6 31 -9 10 -3 25 9 44 36 31 45 29 60 -15 86 -18 11 -17 9 6 -11 36
-31 29 -34 -17 -8 -72 42 -220 47 -265 10 -7 -7 -16 -9 -20 -6 -3 4 14 16 38
27 24 11 37 19 29 19 -8 0 -31 -9 -51 -19z"/>
<path d="M5440 2110 c8 -5 20 -10 25 -10 6 0 3 5 -5 10 -8 5 -19 10 -25 10 -5
0 -3 -5 5 -10z"/>
<path d="M6022 2110 c2 -8 -41 -11 -155 -10 -87 0 -164 3 -172 7 -13 4 -15
-28 -15 -230 l0 -235 28 -6 c21 -4 242 -2 320 3 15 1 17 121 1 121 -5 0 -7 -4
-4 -10 4 -6 -34 -10 -108 -10 l-114 0 6 38 6 37 88 3 c98 3 102 7 95 88 l-3
39 -92 3 c-51 1 -93 7 -93 12 0 36 12 40 111 40 98 0 100 0 109 26 13 33 13
81 0 89 -6 4 -9 1 -8 -5z m-34 -205 c2 -19 -1 -35 -6 -35 -4 0 -8 12 -7 28 l0
27 -90 6 -90 5 95 2 96 2 2 -35z m42 -185 c0 -5 -5 -10 -11 -10 -5 0 -7 5 -4
10 3 6 8 10 11 10 2 0 4 -4 4 -10z m-3 -26 c-3 -3 -12 -4 -19 -1 -8 3 -5 6 6
6 11 1 17 -2 13 -5z"/>
<path d="M6280 2099 c14 -13 36 -35 50 -49 13 -14 8 -5 -11 19 -20 25 -42 47
-50 50 -8 2 -3 -7 11 -20z"/>
<path d="M6491 2102 c-8 -16 -11 -57 -9 -123 2 -54 0 -99 -3 -99 -4 0 -25 24
-48 54 -23 29 -51 62 -63 72 -12 10 6 -16 40 -58 35 -43 67 -80 72 -83 6 -3
15 -15 21 -26 25 -48 -31 9 -129 131 -101 126 -103 128 -147 132 l-45 3 0
-231 c0 -254 -2 -244 60 -244 58 0 60 3 60 115 0 57 4 107 10 110 5 3 17 -4
27 -16 36 -44 106 -125 144 -166 29 -32 47 -43 68 -43 64 0 61 -11 59 254 l-2
241 -6 -210 -6 -210 -2 198 -2 197 -39 0 c-23 0 -41 5 -43 12 -3 8 -10 4 -17
-10z m-204 -239 c-3 -10 -5 -4 -5 12 0 17 2 24 5 18 2 -7 2 -21 0 -30z"/>
<path d="M7113 2095 c-7 -18 -12 -23 -12 -12 -1 16 -17 17 -191 17 -104 0
-193 0 -197 0 -10 0 -16 -67 -9 -97 6 -21 11 -23 76 -23 l70 0 0 -170 0 -171
73 3 72 3 3 168 2 167 60 0 c68 0 74 7 68 96 -3 49 -3 49 -15 19z m-136 -162
c-3 -10 -5 -4 -5 12 0 17 2 24 5 18 2 -7 2 -21 0 -30z m-80 -200 c-2 -21 -4
-4 -4 37 0 41 2 58 4 38 2 -21 2 -55 0 -75z"/>
<path d="M7237 2110 c-12 -34 -14 -75 -5 -102 8 -22 6 -37 -6 -62 -20 -43 -12
-66 23 -66 61 1 102 69 99 167 l-1 68 -7 -55 -7 -55 -1 48 -2 47 -39 0 c-22 0
-41 5 -44 13 -3 9 -6 8 -10 -3z"/>
<path d="M7533 2104 c-17 -7 -44 -30 -60 -50 -39 -51 -40 -129 -3 -170 27 -28
94 -63 138 -70 65 -10 122 -27 122 -35 0 -20 -46 -31 -109 -26 -58 5 -61 4
-26 -4 22 -6 65 -8 95 -5 44 4 51 3 35 -7 -46 -26 -235 7 -235 41 0 13 -3 12
-19 -2 -27 -24 -36 -72 -19 -93 48 -58 231 -78 321 -34 123 60 143 200 36 260
-22 13 -42 21 -45 18 -3 -2 9 -10 26 -17 40 -16 70 -56 69 -89 -1 -24 -1 -24
-10 7 -13 43 -65 76 -154 98 -72 18 -131 42 -122 50 3 3 19 -2 36 -10 16 -9
38 -16 48 -15 10 0 3 5 -14 10 -18 5 -33 14 -33 19 0 15 47 23 88 15 20 -4 49
-9 65 -12 20 -4 27 -1 27 10 0 8 7 20 15 27 17 14 21 75 5 65 -6 -4 -8 -11 -5
-16 4 -5 -2 -9 -11 -9 -10 0 -14 3 -11 7 15 14 -61 34 -130 34 -80 0 -119 -15
-152 -57 -12 -15 -21 -23 -21 -18 0 16 52 66 84 80 17 7 24 13 16 13 -8 0 -29
-7 -47 -15z"/>
<path d="M8325 2101 c-50 -23 -109 -84 -130 -133 -49 -118 24 -282 144 -323
102 -35 248 -14 309 44 30 29 28 43 -13 87 l-35 37 -25 -23 c-19 -18 -42 -25
-92 -30 l-68 -7 54 -2 c38 -1 68 6 98 20 43 21 44 21 58 3 16 -23 12 -29 -11
-16 -11 6 -26 4 -48 -6 -51 -26 -126 -27 -174 -3 -23 12 -46 30 -52 40 -17 33
-11 34 21 2 17 -17 35 -31 40 -31 5 0 -5 13 -22 28 -27 24 -33 37 -36 83 -6
64 14 92 74 108 54 15 74 14 118 -9 22 -11 44 -20 50 -20 14 0 74 90 69 104
-2 6 -14 18 -27 25 -21 13 -22 13 -4 -6 16 -19 16 -21 -3 -38 -11 -10 -23 -15
-27 -12 -3 4 -2 7 4 7 6 0 14 7 17 15 7 18 -54 48 -119 58 -67 11 -194 -34
-232 -81 -7 -9 -13 -11 -13 -5 0 16 59 63 105 84 22 10 33 19 25 19 -8 0 -33
-9 -55 -19z m-1 -257 c3 -8 2 -12 -4 -9 -6 3 -10 10 -10 16 0 14 7 11 14 -7z
m326 -108 c0 -2 -7 -7 -16 -10 -8 -3 -12 -2 -9 4 6 10 25 14 25 6z m-223 -42
c-3 -3 -12 -4 -19 -1 -8 3 -5 6 6 6 11 1 17 -2 13 -5z m86 -1 c-7 -2 -19 -2
-25 0 -7 3 -2 5 12 5 14 0 19 -2 13 -5z"/>
<path d="M8760 2094 c-6 -14 -10 -121 -10 -238 0 -213 0 -214 23 -220 38 -10
277 -7 298 4 15 8 19 21 19 58 l0 47 -112 -3 -113 -3 4 87 c2 48 0 129 -4 180
l-7 94 -29 0 -29 0 -2 -202 -2 -203 -6 205 c-3 131 -1 208 5 212 6 4 2 8 -8 8
-10 0 -22 -11 -27 -26z m315 -384 c3 -5 1 -10 -4 -10 -6 0 -11 5 -11 10 0 6 2
10 4 10 3 0 8 -4 11 -10z"/>
<path d="M8882 1938 c-1 -104 1 -188 6 -188 4 0 6 55 4 122 -5 231 -8 253 -10
66z"/>
<path d="M9335 1960 c0 -141 2 -160 19 -179 11 -12 24 -21 30 -21 6 0 0 7 -12
16 -21 15 -22 21 -22 174 0 87 -4 161 -8 164 -4 2 -7 -67 -7 -154z"/>
<path d="M9526 2110 c-3 -8 -6 -83 -8 -167 -2 -105 -7 -156 -16 -165 -6 -6
-33 -15 -60 -19 l-47 -6 48 -2 c41 -1 53 3 78 28 l29 29 0 144 c0 131 -10 198
-24 158z"/>
<path d="M9620 2112 c13 -6 14 -32 10 -172 l-6 -165 -2 164 -2 163 -22 -6
c-13 -3 -26 -6 -30 -6 -5 0 -8 -61 -8 -136 0 -155 -8 -181 -67 -212 -49 -27
-141 -1 -162 45 -6 14 -11 85 -11 168 l0 145 -36 0 -35 0 4 -158 c2 -100 8
-166 16 -181 8 -14 9 -21 2 -17 -21 13 -31 84 -31 218 0 133 -9 172 -31 137
-13 -21 -11 -300 3 -340 30 -89 97 -132 208 -133 81 -1 149 24 189 69 37 42
43 89 39 280 -3 131 -4 140 -23 142 -15 2 -16 1 -5 -5z"/>
<path d="M10058 2113 c7 -3 16 -2 19 1 4 3 -2 6 -13 5 -11 0 -14 -3 -6 -6z"/>
<path d="M9775 2100 c-8 -14 -15 -409 -7 -435 l8 -30 144 -3 c180 -3 235 10
273 65 48 71 43 147 -13 186 -19 13 -19 14 0 53 25 49 18 104 -18 139 -13 14
-28 25 -33 25 -4 0 6 -13 22 -29 20 -21 29 -39 29 -63 0 -25 -3 -29 -10 -18
-5 8 -10 25 -10 36 0 48 -55 65 -238 73 -79 3 -145 4 -147 1z m42 -182 c0
-131 -2 -148 -7 -88 -11 114 -11 250 -1 250 6 0 9 -69 8 -162z m81 38 c1 19 9
34 18 38 28 11 122 -5 129 -22 7 -19 3 -23 -37 -32 l-33 -8 35 -1 c50 -1 83
24 78 60 -3 15 -1 26 4 23 18 -11 7 -61 -17 -82 -21 -18 -38 -22 -94 -22 -100
0 -101 1 -99 74 l1 61 7 -60 c4 -33 7 -46 8 -29z m248 -24 c-17 -16 -18 -16
-5 5 7 12 15 20 18 17 3 -2 -3 -12 -13 -22z m33 -61 c26 -24 31 -36 30 -73
l-1 -43 -8 37 c-6 36 -49 88 -71 88 -6 0 -7 5 -4 10 10 16 21 12 54 -19z
m-196 2 c-13 -2 -35 -2 -50 0 -16 2 -5 4 22 4 28 0 40 -2 28 -4z m2 -118 c50
0 99 4 110 9 l20 9 -20 -16 c-15 -13 -43 -16 -117 -17 l-98 0 2 53 1 52 6 -45
6 -45 90 0z m85 45 c13 -9 12 -12 -4 -25 -13 -10 -44 -15 -93 -15 -71 0 -73 1
-73 25 0 25 1 25 78 25 42 0 84 -5 92 -10z"/>
<path d="M7700 1940 c34 -11 60 -11 35 0 -11 5 -29 8 -40 8 -16 0 -15 -2 5 -8z"/>
</g>
</svg>
